<?xml version="1.0" encoding="utf-8"?>
<!-- Generator: Adobe Illustrator 15.0.0, SVG Export Plug-In  -->
<!DOCTYPE svg PUBLIC "-//W3C//DTD SVG 1.1//EN" "http://www.w3.org/Graphics/SVG/1.1/DTD/svg11.dtd" [
	<!ENTITY ns_flows "http://ns.adobe.com/Flows/1.0/">
]>
<svg version="1.1"
	 xmlns="http://www.w3.org/2000/svg" xmlns:xlink="http://www.w3.org/1999/xlink" xmlns:a="http://ns.adobe.com/AdobeSVGViewerExtensions/3.0/"
	 x="0px" y="0px" width="1618px" height="634px" viewBox="-815.3 -175.564 1618 634"
	 overflow="visible" enable-background="new -815.3 -175.564 1618 634" xml:space="preserve">
<defs>
</defs>
<path fill="#466042" stroke="#0C0C0C" stroke-width="1.3655" d="M152.718,469.16L33.917,466.6c0,0,49.391-74.104,61.604-101.027
	c12.217-26.926,31.905-101.664,61.605-101.025c29.701,0.642,46.151,76.162,57.196,103.586
	c11.042,27.428,57.196,103.586,57.196,103.586L152.718,469.16z"/>
<path fill="#466042" stroke="#0C0C0C" stroke-width="1.3655" d="M710.952,467.33l-86.999-1.874c0,0,36.169-54.267,45.112-73.983
	c8.946-19.718,23.364-74.449,45.113-73.981c21.751,0.469,33.797,55.774,41.885,75.856c8.088,20.085,41.886,75.857,41.886,75.857
	L710.952,467.33z"/>
<rect x="720.958" y="311.504" transform="matrix(-0.8441 -0.5362 0.5362 -0.8441 1163.3053 974.7936)" fill="#887F5D" stroke="#0C0C0C" stroke-width="0.4403" width="4.841" height="13.519"/>
<g>
	<polygon fill="#537C38" points="748.129,298.753 753.633,302.301 754.5,284.584 755.372,266.868 739.594,274.972 723.818,283.079 
		729.445,286.708 717.666,292.758 723.495,296.517 711.294,302.785 726.203,312.395 741.11,322.007 741.782,308.308 
		747.481,311.981 	"/>
	<path fill="#0C0C0C" d="M748.129,298.753l5.541,3.49l-0.105,0.055l0.685-17.727l0.768-17.722l0.517,0.333
		c-10.478,5.482-20.998,10.881-31.502,16.312l0.04-0.81l5.634,3.618l0.701,0.45l-0.742,0.382l-11.773,6.062l0.042-0.853l5.821,3.77
		l0.698,0.452l-0.739,0.378l-12.212,6.244l0.038-0.784l14.887,9.646l14.851,9.699l-0.475,0.243l0.771-13.693l0.021-0.365
		l0.302,0.199l5.661,3.732l-0.214,0.109L748.129,298.753z M748.129,298.753l-0.51,13.234l-0.01,0.238l-0.204-0.129l-5.737-3.613
		l0.322-0.165l-0.573,13.703l-0.022,0.531l-0.452-0.287l-14.964-9.524l-14.93-9.576l-0.66-0.424l0.698-0.36l12.188-6.291l-0.04,0.83
		l-5.837-3.747l-0.72-0.463l0.762-0.391l11.785-6.04l-0.041,0.832l-5.62-3.64l-0.682-0.441l0.722-0.369
		c10.53-5.378,21.046-10.787,31.605-16.109l0.55-0.277l-0.033,0.61l-0.975,17.712l-1.05,17.707l-0.008,0.119l-0.098-0.064
		L748.129,298.753z"/>
</g>
<rect x="691.672" y="337.115" transform="matrix(-0.9293 0.3694 -0.3694 -0.9293 1463.8425 403.1713)" fill="#887F5D" stroke="#0C0C0C" stroke-width="0.3004" width="3.302" height="9.225"/>
<g>
	<polygon fill="#537C38" points="692.438,320.242 696.601,318.617 687.156,311.052 677.71,303.484 675.879,315.447 674.049,327.411 
		678.307,325.752 676.939,334.683 681.348,332.964 679.933,342.214 691.208,337.82 702.486,333.423 695.18,327.574 699.492,325.891 
			"/>
	<g>
		<path fill="#0C0C0C" d="M692.438,320.242l4.133-1.702l-0.021,0.142l-9.552-7.434l-9.509-7.486l0.572-0.224
			c-1.132,7.989-2.357,15.964-3.549,23.943l-0.633-0.507l4.253-1.67l0.775-0.305l-0.125,0.826l-1.356,8.932l-0.666-0.534
			l4.414-1.706l0.775-0.3l-0.127,0.819l-1.441,9.246l-0.612-0.49l11.291-4.357l11.313-4.299l-0.08,0.527l-7.246-5.924l-0.288-0.235
			l0.344-0.129l4.335-1.622l-0.038,0.253L692.438,320.242z M692.438,320.242l7.146,5.534l0.2,0.155l-0.238,0.098l-4.288,1.743
			l0.056-0.364l7.365,5.775l0.418,0.328l-0.499,0.199l-11.238,4.493l-11.261,4.433l-0.729,0.287l0.116-0.777l1.389-9.254l0.648,0.52
			l-4.403,1.731l-0.798,0.313l0.131-0.849l1.38-8.929l0.65,0.521l-4.263,1.646l-0.758,0.293l0.125-0.801
			c1.249-7.971,2.464-15.947,3.773-23.909l0.1-0.607l0.473,0.385c6.262,5.088,12.503,10.202,18.721,15.345l0.111,0.092l-0.133,0.05
			L692.438,320.242z"/>
	</g>
</g>
<rect x="736.302" y="362.247" transform="matrix(-0.9641 -0.2654 0.2654 -0.9641 1351.6472 914.2859)" fill="#887F5D" stroke="#0C0C0C" stroke-width="0.2338" width="2.569" height="7.176"/>
<g>
	<polygon fill="#537C38" points="747.116,352.082 750.462,353.025 748.147,343.898 745.833,334.771 739.084,341.338 
		732.336,347.906 735.757,348.874 730.72,353.776 734.262,354.779 729.046,359.857 738.109,362.417 747.169,364.977 
		745.379,357.919 748.844,358.897 	"/>
	<g>
		<path fill="#0C0C0C" d="M747.116,352.082l3.355,0.91l-0.042,0.041c-1.616-6.065-3.198-12.141-4.749-18.223l0.262,0.073
			l-13.451,13.181l-0.094-0.37l3.424,0.956l0.388,0.108l-0.289,0.282l-5.029,4.91l-0.104-0.409l3.538,1.015l0.386,0.11l-0.287,0.278
			l-5.232,5.061l-0.088-0.348l18.105,5.182l-0.178,0.173l-1.753-7.067l-0.044-0.177l0.174,0.051l3.455,1.012l-0.086,0.083
			L747.116,352.082z M747.116,352.082l1.796,6.799l0.03,0.115l-0.116-0.032l-3.475-0.943l0.13-0.126l1.827,7.048l0.062,0.239
			l-0.239-0.066l-18.14-5.059l-0.345-0.097l0.257-0.251l5.198-5.096l0.098,0.389l-3.545-0.991l-0.408-0.114l0.305-0.295l5.045-4.895
			l0.099,0.391l-3.417-0.979l-0.368-0.105l0.274-0.265l13.54-13.089l0.195-0.189l0.066,0.264c1.535,6.086,3.039,12.181,4.511,18.283
			l0.014,0.058l-0.057-0.016L747.116,352.082z"/>
	</g>
</g>
<rect x="494.456" y="403.789" transform="matrix(0.9981 0.0609 -0.0609 0.9981 25.8198 -29.9091)" fill="#83DDFD" width="18.755" height="10.115"/>
<rect x="452.407" y="401.223" transform="matrix(0.9981 0.0609 -0.0609 0.9981 25.5828 -27.3517)" fill="#83DDFD" width="18.757" height="10.116"/>
<polygon opacity="0.1" fill="#020202" points="459.778,401.092 459.236,409.984 470.272,410.657 471.455,401.805 "/>
<rect x="494.456" y="403.79" transform="matrix(-0.9981 -0.061 0.061 -0.9981 981.8041 847.6516)" opacity="0.1" fill="#020202" width="18.757" height="10.114"/>
<path fill="#F9F9F9" stroke="#070707" stroke-width="1.8584" stroke-miterlimit="10" d="M528.058,405.259l-87.849-5.361
	c0,0-8.299-54.71,4.004-65.599c16.478-14.58,75.088-12.562,87.848,5.362C541.59,353.047,528.058,405.259,528.058,405.259z"/>
<g>
	<polyline fill="#F9F9F9" points="443.904,343.963 371.321,339.535 373.441,352.088 410.016,354.32 414.737,359.224 
		417.857,355.542 443.103,357.083 	"/>
	<path fill="#070707" d="M443.904,343.963c-6.061-0.179-12.114-0.459-18.171-0.69l-18.161-0.857l-9.08-0.438l-9.075-0.516
		l-18.15-1.03l0.941-1.047c0.731,4.18,1.45,8.362,2.126,12.553l-0.837-0.753l18.282,1.193c6.095,0.388,12.188,0.795,18.278,1.265
		l0.273,0.021l0.175,0.186l4.657,4.965l-0.876,0.028l3.167-3.642l0.178-0.204l0.258,0.019c4.205,0.297,8.407,0.648,12.609,0.995
		c4.202,0.343,8.405,0.686,12.604,1.073c-4.216-0.126-8.429-0.297-12.642-0.468c-4.213-0.167-8.427-0.329-12.637-0.546l0.436-0.186
		l-3.072,3.722l-0.412,0.499l-0.465-0.471l-4.783-4.844l0.447,0.206c-6.103-0.273-12.2-0.61-18.297-0.967l-18.292-1.038l-0.712-0.04
		l-0.126-0.713c-0.737-4.179-1.433-8.365-2.114-12.554l-0.183-1.121l1.124,0.073l18.142,1.184l9.07,0.592l9.065,0.67l18.131,1.357
		C431.824,342.946,437.867,343.404,443.904,343.963z"/>
</g>
<g>
	<polyline fill="#F9F9F9" points="531.402,350.465 572.047,328.339 569.682,314.716 576.646,300.614 587.797,337.56 
		530.601,363.586 	"/>
	<path fill="#070707" d="M531.402,350.465c6.67-3.879,13.399-7.649,20.099-11.475l20.196-11.296l-0.373,0.77
		c-0.855-4.528-1.639-9.07-2.449-13.607l-0.047-0.26l0.119-0.244l6.91-14.129l0.979-2.002l0.651,2.138
		c1.876,6.152,3.787,12.294,5.601,18.466l5.505,18.494l0.209,0.701l-0.66,0.296c-4.779,2.141-9.539,4.324-14.334,6.43l-14.374,6.342
		c-4.789,2.12-9.582,4.229-14.396,6.295l-14.438,6.203l14.161-6.811c4.719-2.271,9.458-4.5,14.202-6.718l14.225-6.672
		c4.737-2.231,9.511-4.387,14.264-6.583L587,337.8l-5.646-18.452c-1.903-6.144-3.709-12.317-5.551-18.48l1.631,0.136l-7.018,14.076
		l0.072-0.504c0.766,4.545,1.561,9.085,2.28,13.638l0.084,0.529l-0.456,0.241l-20.449,10.83
		C545.1,343.365,538.28,346.968,531.402,350.465z"/>
</g>
<g>
	<path fill="#070707" d="M512.886,414.466c-3.137,0.081-6.268,0.071-9.396,0.016c-3.128-0.049-6.255-0.136-9.378-0.271l-0.865-0.037
		l0.033-0.902c0.121-3.371,0.323-6.736,0.504-10.104l0.055-1.008l1.004,0.07c3.119,0.219,6.24,0.396,9.355,0.667
		c1.559,0.128,3.117,0.243,4.674,0.397c1.557,0.151,3.114,0.28,4.67,0.455l0.645,0.072l-0.061,0.588
		C513.781,407.766,513.383,411.12,512.886,414.466z M512.886,414.466c-0.086-3.383-0.071-6.76-0.005-10.133l0.584,0.66
		c-1.565-0.016-3.127-0.077-4.69-0.117c-1.564-0.036-3.125-0.111-4.688-0.174c-3.125-0.11-6.244-0.314-9.366-0.477l1.059-0.938
		c-0.23,3.364-0.438,6.729-0.729,10.09l-0.832-0.939c3.117,0.245,6.23,0.539,9.343,0.87
		C506.673,413.634,509.783,414.004,512.886,414.466z"/>
</g>
<g>
	<path fill="#070707" d="M470.838,411.9c-3.137,0.081-6.269,0.071-9.397,0.016c-3.129-0.049-6.255-0.136-9.379-0.271l-0.865-0.037
		l0.033-0.903c0.121-3.37,0.324-6.736,0.505-10.103l0.055-1.008l1.004,0.07c3.119,0.219,6.24,0.396,9.355,0.667
		c1.559,0.128,3.117,0.243,4.674,0.397c1.557,0.151,3.114,0.28,4.67,0.455l0.645,0.072l-0.061,0.588
		C471.732,405.2,471.335,408.553,470.838,411.9z M470.838,411.9c-0.086-3.383-0.072-6.759-0.006-10.133l0.584,0.66
		c-1.565-0.016-3.127-0.077-4.69-0.117c-1.564-0.036-3.125-0.111-4.688-0.174c-3.125-0.11-6.244-0.314-9.366-0.477l1.059-0.937
		c-0.23,3.363-0.438,6.729-0.729,10.089l-0.832-0.939c3.117,0.245,6.231,0.539,9.344,0.87
		C464.625,411.068,467.735,411.438,470.838,411.9z"/>
</g>
<polygon fill="#070707" points="492.235,347.561 494.943,345.323 500.941,340.364 489.593,339.671 478.244,338.979 483.594,344.629 
	486.008,347.181 476.081,370.484 481.191,380.067 486.302,389.654 492.54,380.761 498.779,371.869 492.502,347.578 "/>
<path fill="#FAF0C7" d="M501.01,210.988c0,0-13.431-3.775-21.297-12.665c-7.867-8.889-29.163-6.899-35.854-4.437
	c-6.367,2.341-15.476-0.145-11.187,34.556c4.289,34.699,3.869,54.696,2.992,69.057c-0.876,14.363,10.768,19.076,23.937,27.09
	c13.165,8.011,12.727,15.192,33.472,16.458c20.746,1.266,15.746-8.651,30.35-11.764c14.607-3.112,24.133-1.73,26.03-32.848
	c1.9-31.119,22.513-75.777,12.686-89.726c-9.17-13.011-35.01-4.003-35.01-4.003S506.596,211.33,501.01,210.988z"/>
<path fill="#887343" d="M526.329,202.924c0,0-3.15-40.236-38.763-47.216c-35.613-6.978-57.217,18.933-57.217,18.933
	s36.325-7.019,44.7,2.444c0,0-48.707-15.502-51.289,26.785c0,0,24.897-14.946,37.572-12.011c0,0,9.942,0.08,15.528,4.232
	c5.585,4.152,18.391,15.862,24.149,14.896C506.769,210.023,526.329,202.924,526.329,202.924z"/>
<path fill="#887343" d="M516.925,175.854c0,0,53.391-2.937,47.969,35.563c0,0-6.214-9.829-15.983-10.234
	c-9.771-0.408-20.982,1.306-21.782,1.523S519.461,178.72,516.925,175.854z"/>
<path fill="#887343" d="M445.071,193.959c0,0-7.866,30.222-4.54,54.449c0,0-4.055,9.53-6.038-5.916
	c-1.984-15.446-3.85-37.666,0.747-42.991C439.836,194.174,445.071,193.959,445.071,193.959z"/>
<path fill="#FAF0C7" d="M560.413,245.046c2.035,0.265,17.772,2.148,9.122,14.572c-8.56,12.292-12.311,27.028-16.64,17.981
	l6.084-32.64"/>
<path fill="#FAF0C7" d="M432.886,238.065c0,0-17.826,0.115-10.827,13.354c7.001,13.241,8.933,28.325,14.329,19.87l-2.068-33.136"/>
<path fill="#3E3E3E" d="M487.935,299.622c6.572,0.859,18.915,3.822,23.166,12.893c0,0-3.839,12.847-24.659,11.577
	c0,0-18.377-1.924-22.771-17.407C463.67,306.684,471.894,297.521,487.935,299.622z"/>
<path fill="#EDB3B5" d="M468.787,314.737c0,0,20.229-2.904,34.117,5.484c0,0-8.082,6.781-18.058,3.772
	C474.871,320.983,468.641,317.129,468.787,314.737z"/>
<path fill="#F9F9F9" d="M477.978,300.557c0,0-1.588,5.684-0.427,6.994c1.34,1.514,8.068,0.493,8.068,0.493s7.448,2.082,9.168,0.56
	c1.187-1.051,0.388-6.326,0.388-6.326S493.576,299.503,477.978,300.557z"/>
<ellipse transform="matrix(0.9999 -0.0132 0.0132 0.9999 -3.3287 6.1893)" fill="#F9F9F9" cx="466.435" cy="254.847" rx="17.32" ry="20.518"/>
<ellipse transform="matrix(-0.9755 -0.22 0.22 -0.9755 966.2608 630.0203)" fill="#F9F9F9" cx="518.208" cy="261.211" rx="17.32" ry="20.518"/>
<g>
	<path fill="#887343" d="M448.099,231.396c0.373-0.772,1.266-0.764,3.61-3.18c2.28-2.12,6.014-6.666,10.586-9.672
		c4.554-3.012,9.947-4.488,15.109-0.678c5.188,3.496,10.145,12.279,14.412,22.54C492.471,242.191,467.623,215.035,448.099,231.396z"
		/>
</g>
<g>
	<path fill="#887343" d="M547.223,244.75c-0.727,0.669-3.216-1.926-11.357-10.931c-7.65-7.118-20.953-20.646-31.982,1.717
		c-0.398,0.263,5.633-4.501,14.744-2.035C527.569,234.857,539.589,243.442,547.223,244.75z"/>
</g>
<path fill="#887343" d="M553.858,202.848c0,0,4.133,30.952-2.115,54.599c0,0,2.866,9.953,6.714-5.14
	c3.847-15.09,8.401-36.92,4.484-42.764C559.026,203.699,553.858,202.848,553.858,202.848z"/>
<path opacity="0.1" fill="#070707" d="M490.21,206.404c0,0-11.212-8.674-32.773-7.752c-10.963,0.465-25.423,19.872-25.423,19.872
	l1.176-19.289c0,0,20.647-8.296,28.143-7.375C468.83,192.781,471.817,190.675,490.21,206.404z"/>
<path opacity="0.1" fill="#070707" d="M461.136,325.562c0,0,10.531-5.58,18.471-1.888c12.965,6.026,38.684-6.155,47.289-16.314
	c9.207-10.863,16.778-30.964,19.159-38.862c2.383-7.896,9.479-55.214,4.067-66.643l-13.579-0.062l-9.415,0.914l-9.964,3.903
	l-9.969,2.771l-6.186,1.606l-7.432-2.876l-11.988-8.64l-16.426-9.154l-14.673,2.066l-20.842,8.253l-4.215,2.268
	c0,0,3.093-8.494,25.38-15.808c20.566-6.747,34.474-1.539,39.475,0.279c9.881,3.591,14.501-5.281,14.857-11.118
	c0.357-5.84,0.892-12.666-7.107-17.199l11.283,7.596l7.603,9.199l9.577,0.222l9.389,1.31l7.387,1.924l8.01,3.466l5.856,4.182
	l5.374,6.958l2.377,7.359l-0.569,9.33l0.194,12.802l-4.107,21.641l5.637,1.293l4.14,2.392l1.975,3.649l-1.659,5.712l-3.353,5.188
	l-2.802,4.849l-3.208,6.865l-3.509,5.525l-5.07-4.562l-1.437,7.254l-1.598,12.164l-0.779,8.759l-1.408,7.679l-0.533,6.553
	l-8.033,6.729l-5.966,2.312l-6.73,2.121l-5.808,0.626l-7.396,4.553l-3.305,2.892l-5.405,2.684l-8.285,0.938l-5.381-0.371
	l-8.404-1.439l-7.997-3.644C474.098,335.764,463.964,327.314,461.136,325.562z"/>
<g>
	<path fill="#070707" d="M432.485,238.361c-2.124,0.142-4.247,0.555-6.228,1.26c-1.956,0.707-3.856,1.815-4.833,3.514
		c-0.999,1.687-0.804,3.783-0.09,5.658c0.351,0.961,0.825,1.835,1.351,2.783c0.528,0.963,1.024,1.937,1.497,2.921
		c1.901,3.933,3.395,8.034,4.908,12.041c0.764,1.972,1.529,4.039,2.535,5.608c0.244,0.374,0.525,0.7,0.713,0.824
		c0.092,0.065,0.132,0.06,0.095,0.041c-0.036-0.021-0.104-0.015-0.071-0.03c0.063-0.027,0.357-0.266,0.605-0.578
		c0.26-0.32,0.519-0.711,0.765-1.124l0.002-0.002l-0.259,0.951c0.599-1.436,0.677-2.853,0.687-4.268
		c0.022-1.414-0.062-2.825-0.139-4.236c-0.212-2.82-0.166-5.65-0.201-8.478c-0.037-5.654-0.115-11.308-0.077-16.966l0.344-0.012
		c0.442,5.64,0.77,11.284,1.137,16.928c0.167,2.822,0.415,5.641,0.406,8.47c0.024,1.413,0.041,2.826,0.164,4.236
		c0.111,1.409,0.29,2.817,0.99,4.206l-0.064-0.128l-0.194,1.079v0.003c-0.337,0.491-0.699,0.983-1.149,1.472
		c-0.471,0.478-0.979,1.01-1.931,1.372c-0.471,0.173-1.093,0.243-1.657,0.107c-0.566-0.129-1.008-0.407-1.334-0.68
		c-0.65-0.558-1.003-1.122-1.323-1.661c-0.615-1.081-1.011-2.129-1.406-3.171c-0.386-1.039-0.732-2.073-1.07-3.103
		c-1.337-4.113-2.603-8.183-4.256-12.1c-0.411-0.979-0.845-1.947-1.306-2.896c-0.475-0.955-0.97-2.013-1.286-3.102
		c-0.327-1.093-0.541-2.251-0.481-3.438c0.054-1.18,0.405-2.382,1.073-3.368c1.352-2.005,3.526-3.02,5.607-3.641
		c2.122-0.605,4.298-0.847,6.474-0.839L432.485,238.361z"/>
</g>
<g>
	<path fill="#070707" d="M560.435,244.875c2.17,0.196,4.353,0.572,6.438,1.35c1.041,0.392,2.059,0.89,2.989,1.56
		c0.923,0.673,1.766,1.545,2.295,2.636c0.545,1.081,0.713,2.338,0.601,3.518c-0.107,1.188-0.468,2.311-0.925,3.361
		c-0.46,1.046-1.036,2.045-1.651,2.961c-0.594,0.905-1.151,1.804-1.703,2.73c-2.202,3.692-4.081,7.565-6.098,11.454
		c-0.509,0.972-1.032,1.945-1.604,2.915c-0.582,0.971-1.176,1.943-2.033,2.901c-0.44,0.471-0.934,0.97-1.744,1.353
		c-0.402,0.186-0.911,0.324-1.455,0.308c-0.544-0.013-1.07-0.186-1.479-0.412c-0.83-0.468-1.281-1.044-1.693-1.578
		c-0.393-0.541-0.7-1.077-0.979-1.612l-0.226-0.433l0.091-0.592c0.418-2.736,0.861-5.468,1.401-8.182
		c0.527-2.716,1.145-5.416,1.754-8.116c0.637-2.696,1.301-5.387,2.019-8.067c0.732-2.678,1.488-5.352,2.378-8l0.338,0.062
		c-0.125,2.791-0.383,5.558-0.663,8.32c-0.297,2.759-0.647,5.508-1.024,8.252c-0.404,2.739-0.802,5.479-1.288,8.203
		c-0.474,2.727-1.045,5.435-1.641,8.138l-0.135-1.023c0.193,0.443,0.402,0.864,0.624,1.22c0.214,0.344,0.47,0.635,0.589,0.709
		c0.127,0.062-0.021,0.081,0.188,0.041c0.188-0.057,0.524-0.298,0.832-0.606c1.283-1.304,2.407-3.231,3.492-5.053
		c2.166-3.723,4.273-7.578,6.704-11.239c0.604-0.912,1.237-1.829,1.879-2.71c0.633-0.86,1.194-1.72,1.672-2.634
		c0.941-1.8,1.447-3.881,0.682-5.688c-0.747-1.817-2.579-3.098-4.49-3.951c-1.94-0.865-4.044-1.409-6.178-1.753L560.435,244.875z"/>
</g>
<g>
	<path fill="#070707" d="M526.136,202.803c-0.617-5.249-1.973-10.416-3.827-15.36c-1.891-4.983-4.381-9.748-7.554-14.011
		c-3.167-4.261-7.042-7.995-11.492-10.856c-4.44-2.876-9.432-4.848-14.596-5.949c-5.181-1.087-10.505-1.532-15.781-1.256
		c-5.277,0.276-10.507,1.274-15.511,2.944c-5.006,1.67-9.782,4.009-14.205,6.882c-2.212,1.437-4.337,3.007-6.355,4.7
		c-2.001,1.688-3.966,3.524-5.626,5.444l-1.047-1.773c3.815-0.726,7.613-1.286,11.449-1.739c3.832-0.447,7.685-0.77,11.56-0.889
		c3.874-0.109,7.775-0.043,11.687,0.509c1.954,0.284,3.914,0.69,5.841,1.378c1.909,0.694,3.858,1.668,5.391,3.356l3.188,3.516
		l-4.621-1.316c-5.314-1.514-10.98-2.379-16.541-2.552c-5.565-0.149-11.187,0.458-16.254,2.432c-2.525,0.985-4.886,2.326-6.936,4.03
		c-2.047,1.706-3.781,3.764-5.134,6.069c-2.727,4.626-3.895,10.115-4.222,15.618l-2.713-1.646c2.972-1.732,5.943-3.286,8.999-4.769
		c3.05-1.474,6.156-2.842,9.343-4.049c3.184-1.213,6.465-2.225,9.864-2.916c3.392-0.65,6.963-1.078,10.637-0.242l-0.335-0.039
		c3.173,0.126,6.184,0.567,9.22,1.391c1.507,0.421,3.001,0.946,4.443,1.658c0.722,0.354,1.428,0.761,2.107,1.224
		c0.7,0.486,1.256,0.944,1.861,1.422c4.684,3.778,9.107,7.756,14.021,10.98c1.225,0.798,2.479,1.543,3.77,2.146
		c1.276,0.588,2.653,1.078,3.857,1.012c0.609-0.059,1.371-0.227,2.073-0.382c0.716-0.161,1.433-0.345,2.15-0.527
		c1.438-0.366,2.873-0.764,4.306-1.173C514.842,206.436,520.488,204.61,526.136,202.803z M526.387,203.086
		c-5.557,2.222-11.161,4.31-16.826,6.272c-1.419,0.486-2.843,0.961-4.281,1.408c-0.72,0.223-1.446,0.43-2.181,0.627
		c-0.751,0.19-1.443,0.387-2.318,0.506c-1.806,0.145-3.344-0.422-4.789-1.002c-1.441-0.611-2.791-1.351-4.1-2.135
		c-5.203-3.174-9.891-6.998-14.58-10.624c-1.197-0.934-2.24-1.681-3.516-2.252c-1.252-0.585-2.599-1.031-3.977-1.384
		c-2.747-0.691-5.7-1.053-8.5-1.103l-0.16-0.003l-0.175-0.036c-2.896-0.61-6.141-0.22-9.263,0.465
		c-3.145,0.698-6.244,1.762-9.307,2.926c-3.062,1.181-6.073,2.528-9.035,3.981c-2.953,1.453-5.901,3.021-8.697,4.674l-2.932,1.734
		l0.219-3.381c0.382-5.87,1.688-11.9,4.838-17.161c1.56-2.619,3.597-4.98,5.979-6.897c2.381-1.922,5.085-3.396,7.904-4.447
		c5.662-2.103,11.669-2.627,17.508-2.389c5.87,0.275,11.593,1.237,17.263,2.922l-1.433,2.199c-1.037-1.188-2.596-2.048-4.262-2.667
		c-1.677-0.622-3.482-1.025-5.313-1.312c-3.674-0.563-7.463-0.679-11.244-0.615c-3.785,0.072-7.58,0.345-11.362,0.741
		c-3.777,0.402-7.571,0.918-11.291,1.58l-3.109,0.554l2.062-2.327c1.87-2.111,3.861-3.912,5.97-5.655
		c2.105-1.725,4.315-3.317,6.612-4.771c4.592-2.908,9.542-5.261,14.721-6.921c10.355-3.379,21.601-3.689,32.147-1.277
		c5.288,1.213,10.393,3.323,14.903,6.346c4.521,3.007,8.42,6.89,11.573,11.271c3.158,4.386,5.601,9.247,7.43,14.303
		c1.81,5.065,3.102,10.316,3.635,15.674l0.013,0.127L526.387,203.086z"/>
</g>
<g>
	<path fill="#070707" d="M516.917,175.682c5.801-0.326,11.629-0.018,17.389,0.869c5.747,0.91,11.474,2.428,16.753,5.122
		c2.626,1.359,5.122,3.032,7.314,5.083c2.193,2.045,4.06,4.485,5.413,7.2c2.743,5.46,3.232,11.767,2.467,17.652l-0.446,3.432
		l-2.071-2.89c-3.155-4.401-7.883-8.27-13.067-9.066c-0.648-0.102-1.282-0.168-1.949-0.181c-0.726-0.021-1.426-0.029-2.147-0.028
		c-1.435,0.001-2.872,0.048-4.312,0.108c-2.88,0.111-5.768,0.305-8.65,0.568c-1.44,0.127-2.884,0.267-4.312,0.441l-1.061,0.139
		l-0.508,0.075l-0.191,0.032l0.007-0.002c0.135-0.011-1.143,0.083-0.61,0.042l-0.018-0.004l-0.084-0.015
		c-0.096-0.019-0.195-0.046-0.295-0.083c-0.198-0.074-0.39-0.192-0.541-0.326c-0.083-0.074-0.146-0.146-0.14-0.139l-0.037-0.045
		l-0.073-0.093c-0.053-0.067-0.092-0.127-0.108-0.156c-0.198-0.322-0.268-0.503-0.358-0.706l-0.228-0.567
		c-0.142-0.367-0.266-0.725-0.384-1.083c-0.924-2.846-1.754-5.642-2.554-8.469l-2.428-8.439c-0.403-1.405-0.83-2.803-1.276-4.19
		c-0.224-0.693-0.456-1.383-0.713-2.061c-0.255-0.673-0.515-1.366-0.901-1.936l-0.184-0.27L516.917,175.682z M517.28,176.032
		c0.89,1.099,1.462,2.336,2.08,3.551c0.647,1.332,1.232,2.687,1.816,4.041c1.139,2.718,2.213,5.457,3.248,8.203
		c1.061,2.731,2.028,5.516,3.107,8.18l0.404,0.97l0.202,0.443c0.06,0.13,0.146,0.282,0.146,0.27c0.006,0.011-0.007-0.012-0.03-0.044
		l-0.031-0.038l-0.132-0.132c-0.133-0.12-0.308-0.223-0.488-0.282c-0.09-0.03-0.181-0.051-0.268-0.062
		c-0.132-0.014-0.029-0.003-0.053-0.005l0.017,0.003c0.543-0.041-0.723,0.06-0.577,0.044l0.073-0.02l0.348-0.078l0.574-0.111
		l1.112-0.196c1.473-0.245,2.939-0.461,4.412-0.647c2.946-0.358,5.906-0.614,8.885-0.724c1.488-0.05,2.982-0.051,4.479-0.023
		c0.743,0.016,1.508,0.042,2.246,0.079c0.798,0.037,1.625,0.129,2.419,0.287c3.207,0.635,6.091,2.183,8.53,4.103
		c1.227,0.962,2.354,2.025,3.393,3.161c1.044,1.152,1.976,2.307,2.86,3.681l-2.518,0.542c0.88-5.513,0.58-11.276-1.76-16.302
		c-2.298-5.045-6.587-9.021-11.529-11.74c-4.948-2.771-10.495-4.482-16.124-5.591C528.592,176.539,522.931,175.998,517.28,176.032z"
		/>
</g>
<g>
	<path fill="#070707" d="M487.954,299.485c2.282,0.318,4.544,0.78,6.774,1.362s4.439,1.288,6.555,2.245
		c2.119,0.94,4.166,2.104,5.987,3.606c1.806,1.51,3.368,3.375,4.439,5.53l0.12,0.242l-0.085,0.235
		c-1.82,5.05-6.159,8.571-10.917,10.452c-2.394,0.949-4.913,1.521-7.444,1.818c-1.267,0.148-2.538,0.231-3.808,0.259
		c-0.636,0.014-1.271,0.013-1.904,0l-0.95-0.029l-0.237-0.009l-0.17-0.009l-0.135-0.014l-0.491-0.062
		c-2.559-0.364-5.03-1.016-7.444-1.907c-2.404-0.896-4.752-2.035-6.889-3.54c-2.132-1.499-4.095-3.317-5.63-5.479
		c-1.548-2.148-2.68-4.599-3.327-7.142l-0.193-0.759l0.481-0.486c0.911-0.92,1.782-1.572,2.752-2.222
		c0.955-0.634,1.941-1.206,2.971-1.687c2.049-0.974,4.198-1.685,6.382-2.151c2.184-0.477,4.403-0.67,6.604-0.702
		C483.596,299.017,485.79,299.16,487.954,299.485z M487.917,299.758c-2.157-0.234-4.336-0.298-6.487-0.078
		c-2.151,0.2-4.261,0.691-6.282,1.363c-2.021,0.682-3.948,1.592-5.725,2.707c-0.884,0.564-1.749,1.148-2.558,1.796
		c-0.788,0.636-1.617,1.362-2.21,2.021l0.288-1.245c1.374,4.473,4.229,8.324,8.021,11.101c3.774,2.787,8.371,4.639,13.061,5.486
		l0.43,0.068l0.097,0.014c-0.064-0.005,0.047,0.003,0.062,0.004l0.227,0.015l0.907,0.055c0.604,0.03,1.21,0.049,1.814,0.053
		c1.208,0.01,2.415-0.034,3.615-0.139c2.397-0.211,4.77-0.681,7.014-1.495c2.241-0.812,4.352-1.983,6.145-3.539
		c1.773-1.533,3.309-3.521,4.123-5.623l0.035,0.478c-0.881-2.017-2.24-3.826-3.886-5.348c-1.637-1.536-3.543-2.807-5.567-3.852
		c-2.035-1.026-4.18-1.858-6.382-2.494C492.453,300.474,490.193,300.041,487.917,299.758z"/>
</g>
<g>
	<path fill="#070707" d="M468.772,314.634c2.907-0.432,5.841-0.627,8.78-0.684c2.939-0.048,5.888,0.069,8.822,0.395
		c5.847,0.683,11.722,2.176,16.943,5.19l1.002,0.579l-0.901,0.72c-2.647,2.112-5.632,3.565-8.885,4.412
		c-1.622,0.417-3.311,0.599-5,0.577c-1.69-0.029-3.372-0.34-4.982-0.832c-3.075-0.987-6.098-2.168-8.974-3.68
		c-1.436-0.758-2.834-1.601-4.133-2.603c-0.643-0.507-1.257-1.062-1.799-1.693c-0.515-0.623-1.058-1.394-0.963-2.285l0.009-0.085
		L468.772,314.634z M468.913,314.832c0.105,0.707,0.641,1.27,1.172,1.756c0.582,0.503,1.233,0.932,1.908,1.321
		c1.344,0.79,2.773,1.447,4.222,2.053c2.903,1.202,5.91,2.168,8.938,3.037c2.896,0.831,5.965,0.912,8.94,0.306
		c2.958-0.597,5.895-1.91,8.297-3.696l0.101,1.299c-4.853-3.035-10.523-4.692-16.247-5.571c-2.87-0.451-5.778-0.698-8.693-0.782
		C474.672,314.478,471.78,314.543,468.913,314.832z"/>
</g>
<g>
	<path fill="#F9F9F9" d="M477.978,300.557c0,0-1.588,5.684-0.427,6.994c1.34,1.514,8.068,0.493,8.068,0.493s7.448,2.082,9.168,0.56
		c1.187-1.051,0.388-6.326,0.388-6.326S493.576,299.503,477.978,300.557z"/>
	<path fill="#070707" d="M478.059,300.662c-0.28,1.221-0.502,2.461-0.612,3.699c-0.053,0.631-0.076,1.267-0.012,1.874
		c0.034,0.301,0.094,0.598,0.203,0.838c0.054,0.12,0.122,0.221,0.196,0.282c0.142,0.133,0.178,0.13,0.32,0.208
		c1.042,0.43,2.38,0.383,3.614,0.331c1.256-0.073,2.529-0.215,3.764-0.423l0.107-0.019l0.136,0.033
		c1.254,0.304,2.547,0.555,3.826,0.729c1.27,0.165,2.589,0.287,3.736,0.117c0.277-0.046,0.544-0.116,0.727-0.21
		c0.077-0.032,0.188-0.126,0.158-0.105l0.08-0.09c-0.007-0.003-0.013-0.003-0.015-0.001l0.044-0.098
		c0.152-0.39,0.209-1.031,0.212-1.632c0.005-1.229-0.173-2.534-0.364-3.769l0.124,0.354c0.096,0.149,0.054,0.076,0.062,0.096
		l-0.033-0.027c-0.031-0.024-0.077-0.057-0.128-0.088c-0.103-0.064-0.228-0.13-0.362-0.19c-0.27-0.123-0.575-0.227-0.89-0.323
		c-0.63-0.2-1.308-0.343-1.993-0.477c-1.377-0.252-2.802-0.423-4.237-0.548C483.873,300.98,480.977,300.854,478.059,300.662z
		 M477.971,300.458c2.897-0.583,5.839-0.927,8.817-0.96c1.489-0.01,2.989,0.039,4.504,0.258c0.758,0.104,1.517,0.266,2.285,0.501
		c0.384,0.122,0.767,0.273,1.156,0.467c0.195,0.098,0.393,0.208,0.595,0.346c0.102,0.069,0.205,0.146,0.312,0.239
		c0.054,0.046,0.109,0.099,0.168,0.159c0.072,0.085,0.092,0.079,0.237,0.307l0.1,0.156l0.024,0.197
		c0.168,1.383,0.22,2.722,0.141,4.138c-0.061,0.712-0.105,1.418-0.474,2.251c-0.056,0.111-0.102,0.202-0.193,0.337
		c-0.05,0.069-0.103,0.137-0.157,0.201l-0.09,0.09c-0.269,0.251-0.446,0.329-0.668,0.435c-0.421,0.18-0.81,0.245-1.186,0.291
		c-1.486,0.136-2.822-0.083-4.157-0.315c-1.331-0.251-2.623-0.568-3.923-0.951l0.243,0.015c-1.311,0.15-2.601,0.244-3.915,0.236
		c-0.655-0.008-1.313-0.034-1.976-0.118c-0.659-0.088-1.332-0.2-1.988-0.547c-0.141-0.071-0.381-0.247-0.461-0.348
		c-0.159-0.16-0.257-0.344-0.322-0.521c-0.133-0.356-0.17-0.703-0.188-1.041c-0.027-0.676,0.043-1.328,0.14-1.973
		c0.201-1.286,0.512-2.54,0.885-3.776l0.018-0.06L477.971,300.458z"/>
</g>
<g>
	<path fill="#070707" d="M486.73,304.226c0.19,0.659,0.304,1.314,0.405,1.969c0.045,0.326,0.22,0.661,0.09,0.977
		c-0.12,0.317-0.3,0.63-0.732,0.928l-0.15-0.01c-0.393-0.348-0.533-0.681-0.614-1.01c-0.09-0.329,0.124-0.64,0.209-0.959
		c0.181-0.637,0.373-1.272,0.643-1.904L486.73,304.226z"/>
</g>
<g>
	<path fill="#070707" d="M447.977,231.333c3.703-2.938,6.463-6.634,9.912-9.85c1.707-1.603,3.546-3.104,5.6-4.312
		c2.048-1.2,4.359-2.118,6.838-2.263c2.473-0.16,4.997,0.602,7.044,1.965c2.039,1.278,3.808,3.037,5.299,4.872
		c3.005,3.712,5.309,7.848,7.409,12.042c0.523,1.051,1.032,2.108,1.523,3.173l0.729,1.6l0.357,0.804l0.177,0.402l0.044,0.1
		l0.022,0.051l0.068,0.193c-0.017-0.068,0.06,0.204,0.048,0.378c0.044,0.052-0.119,0.742-0.463,0.949
		c-0.364,0.299-0.871,0.291-0.894,0.27c-0.166-0.016-0.296-0.058-0.314-0.066l-0.149-0.059l-0.077-0.038l-0.116-0.065
		c-0.411-0.265-0.584-0.421-0.84-0.616l-0.69-0.551l-1.354-1.08c-0.903-0.711-1.814-1.404-2.738-2.076
		c-3.675-2.711-7.553-5.116-11.641-6.995c-4.08-1.868-8.476-3.1-12.936-3.013c-4.452,0.073-8.877,1.644-12.646,4.355
		L447.977,231.333z M448.01,231.291c1.654-1.665,3.616-3.045,5.76-4.118c2.157-1.047,4.523-1.716,6.939-1.962
		c4.857-0.518,9.735,0.605,14.155,2.418c4.447,1.828,8.475,4.447,12.198,7.353c0.926,0.733,1.834,1.487,2.727,2.252l1.326,1.149
		l0.649,0.564c0.195,0.17,0.467,0.391,0.543,0.443c-0.002,0,0.003,0.003-0.022-0.011l-0.028-0.013
		c-0.022-0.011-0.065-0.029-0.099-0.039c-0.003-0.001-0.114-0.04-0.262-0.054c-0.005-0.016-0.494-0.03-0.842,0.262
		c-0.335,0.193-0.485,0.867-0.445,0.9c-0.014,0.155,0.064,0.41,0.041,0.325l-0.007-0.026c0.095,0.274,0.021,0.062,0.039,0.116
		l-0.021-0.05l-0.04-0.101l-0.16-0.401l-0.324-0.802l-0.662-1.597c-0.446-1.062-0.91-2.116-1.388-3.163
		c-1.932-4.167-4.071-8.271-6.821-11.879c-2.697-3.524-6.428-6.755-10.886-6.573c-2.188,0.036-4.362,0.781-6.353,1.847
		c-2.001,1.072-3.847,2.455-5.586,3.965c-1.743,1.509-3.372,3.158-5.02,4.802c-0.834,0.828-1.671,1.618-2.54,2.409
		c-0.442,0.388-0.904,0.755-1.388,1.09c-0.465,0.351-1.034,0.596-1.274,1.062L448.01,231.291z"/>
</g>
<g>
	<path fill="#070707" d="M547.303,244.862c-0.04,0.041-0.189,0.127-0.293,0.126c-0.11,0.012-0.209-0.007-0.303-0.03
		c-0.182-0.054-0.339-0.137-0.491-0.224c-0.299-0.18-0.569-0.387-0.832-0.6c-0.524-0.429-1.017-0.885-1.504-1.348
		c-0.969-0.927-1.907-1.881-2.84-2.84l-5.531-5.806l0.029,0.029c-2.548-2.283-5.069-4.573-7.839-6.472
		c-2.737-1.889-5.804-3.457-8.986-3.604c-1.578-0.073-3.139,0.239-4.556,0.909c-1.421,0.666-2.698,1.655-3.823,2.813
		c-2.258,2.329-3.949,5.241-5.372,8.251l-0.145,0.306l-0.273,0.167l-0.089,0.055c0.07-0.154-0.064,0.379-1.184-0.004
		c-0.914-0.788-0.521-1.141-0.597-1.221c0.024-0.174,0.099-0.364,0.204-0.515c0.139-0.186,0.217-0.235,0.182-0.206l0.088-0.075
		l0.08-0.062l0.125-0.091l0.231-0.159l0.453-0.286c0.302-0.182,0.605-0.35,0.913-0.51c0.615-0.318,1.246-0.597,1.89-0.841
		c1.287-0.486,2.626-0.835,3.988-1.037c2.726-0.376,5.538-0.211,8.172,0.53l-0.159-0.033c2.736,0.438,5.242,1.378,7.645,2.426
		c2.407,1.043,4.705,2.246,6.979,3.458c2.269,1.222,4.507,2.468,6.769,3.649c2.264,1.175,4.549,2.308,7.012,2.995l0.235,0.065
		L547.303,244.862z M547.2,244.885c-1.301-0.102-2.583-0.394-3.835-0.751c-1.253-0.359-2.493-0.763-3.703-1.232
		c-2.429-0.918-4.788-1.969-7.14-2.996c-2.346-1.036-4.685-2.057-7.031-2.964c-2.35-0.886-4.729-1.667-7.078-2.026l-0.073-0.011
		l-0.086-0.022c-2.313-0.602-4.709-0.872-7.073-0.582c-1.18,0.128-2.351,0.371-3.479,0.744c-0.564,0.185-1.119,0.4-1.654,0.647
		c-0.269,0.123-0.53,0.256-0.783,0.396l-0.368,0.214l-0.169,0.107l-0.071,0.048c-0.006,0.004-0.022,0.015-0.016,0.01l0.042-0.037
		c-0.038,0.03,0.038-0.018,0.176-0.201c0.104-0.147,0.176-0.336,0.199-0.509c-0.08-0.077,0.317-0.432-0.594-1.22
		c-1.117-0.384-1.25,0.147-1.177-0.008l-0.064,0.039l-0.417,0.473c1.614-3.092,3.498-6.123,6.087-8.643
		c1.293-1.248,2.793-2.347,4.497-3.08c1.697-0.739,3.597-1.054,5.431-0.905c3.708,0.309,6.909,2.149,9.691,4.19
		c2.795,2.085,5.24,4.521,7.683,6.901l0.022,0.021l0.007,0.008l5.271,6.029c0.888,0.995,1.781,1.985,2.702,2.944
		c0.462,0.478,0.93,0.949,1.422,1.388c0.246,0.219,0.5,0.429,0.767,0.604c0.261,0.162,0.575,0.34,0.759,0.175L547.2,244.885z"/>
</g>
<g>
	
		<ellipse transform="matrix(0.9999 -0.0132 0.0132 0.9999 -3.3287 6.1893)" fill="#F9F9F9" cx="466.435" cy="254.847" rx="17.32" ry="20.518"/>
	<path fill="#070707" d="M483.846,254.617c0.03,2.488-0.309,4.988-1.045,7.368c-0.714,2.385-1.794,4.676-3.28,6.697
		c-1.468,2.027-3.335,3.8-5.532,5.07c-2.195,1.266-4.717,2.006-7.277,2.075c-2.56,0.062-5.133-0.55-7.416-1.716
		c-2.287-1.164-4.286-2.851-5.897-4.834c-3.233-3.979-4.918-9.092-5.025-14.192c-0.132-5.1,1.307-10.318,4.397-14.511
		c1.551-2.078,3.509-3.894,5.811-5.175c2.304-1.268,4.933-1.98,7.57-1.998c2.64-0.004,5.263,0.696,7.532,1.969
		c2.272,1.275,4.191,3.069,5.704,5.111C482.417,244.595,483.812,249.655,483.846,254.617z M483.661,254.619
		c-0.082-4.943-1.873-9.849-5.051-13.517c-3.137-3.685-7.762-5.994-12.434-5.843c-4.689,0.062-9.085,2.672-11.938,6.425
		c-2.91,3.751-4.392,8.577-4.379,13.382c0.011,4.805,1.51,9.657,4.483,13.459c1.48,1.894,3.327,3.51,5.446,4.639
		c2.116,1.13,4.505,1.747,6.911,1.734c4.853,0.055,9.507-2.583,12.51-6.451c1.508-1.94,2.666-4.162,3.413-6.517
		C483.354,259.568,483.69,257.091,483.661,254.619z"/>
</g>
<g>
	
		<ellipse transform="matrix(-0.9755 -0.22 0.22 -0.9755 966.2608 630.0203)" fill="#F9F9F9" cx="518.208" cy="261.211" rx="17.32" ry="20.518"/>
	<path fill="#070707" d="M501.222,257.38c0.55-2.427,1.461-4.779,2.731-6.923c1.25-2.153,2.834-4.13,4.749-5.749
		c1.899-1.63,4.128-2.919,6.561-3.644c2.43-0.72,5.055-0.853,7.561-0.322c2.504,0.535,4.864,1.729,6.812,3.394
		c1.954,1.665,3.505,3.771,4.61,6.074c2.219,4.624,2.666,9.987,1.583,14.973c-1.059,4.99-3.673,9.731-7.654,13.088
		c-1.991,1.66-4.318,2.97-6.855,3.68c-2.535,0.697-5.258,0.777-7.828,0.181c-2.566-0.61-4.955-1.902-6.866-3.668
		c-1.913-1.77-3.362-3.961-4.357-6.299C500.279,267.458,500.101,262.213,501.222,257.38z M501.404,257.421
		c-1.071,4.826-0.472,10.014,1.765,14.32c2.193,4.314,6.152,7.637,10.732,8.576c4.574,1.034,9.456-0.481,13.105-3.467
		c3.703-2.971,6.267-7.319,7.373-11.995c1.108-4.675,0.779-9.743-1.227-14.133c-0.999-2.186-2.418-4.188-4.217-5.779
		c-1.794-1.591-3.974-2.747-6.316-3.295c-4.707-1.184-9.848,0.298-13.669,3.361c-1.918,1.535-3.562,3.426-4.836,5.542
		C502.854,252.679,501.95,255.01,501.404,257.421z"/>
</g>
<path fill="#070707" d="M479.463,260.038c-0.251,4.128-3.969,7.258-8.303,6.995c-4.333-0.266-7.641-3.826-7.389-7.953
	c0.251-4.125,3.968-7.258,8.301-6.993C476.407,252.351,479.715,255.912,479.463,260.038z"/>
<path fill="none" stroke="#070707" stroke-width="1.3785" stroke-miterlimit="10" d="M553.858,202.848
	c0,0,4.133,30.952-2.115,54.599c0,0,2.866,9.953,6.714-5.14c3.847-15.09,8.401-36.92,4.484-42.764
	C559.026,203.699,553.858,202.848,553.858,202.848z"/>
<ellipse transform="matrix(-0.9981 -0.0608 0.0608 -0.9981 1010.2506 559.4908)" fill="#070707" cx="513.638" cy="264.374" rx="7.46" ry="7.107"/>
<g>
	<path fill="#070707" d="M493.654,270.87c0.264,2.194,0.633,4.38,1.149,6.522c0.258,1.07,0.554,2.133,0.942,3.153
		c0.396,1.039,0.858,1.958,1.646,2.77c0.7,0.9,1.269,1.961,1.354,3.185c0.03,0.604-0.106,1.262-0.479,1.79
		c-0.375,0.524-0.919,0.876-1.472,1.095c-1.129,0.407-2.289,0.432-3.407,0.349c-1.122-0.097-2.219-0.313-3.288-0.619l0.014-0.068
		c1.103,0.112,2.202,0.213,3.293,0.207c1.081-0.015,2.188-0.092,3.128-0.506c0.961-0.369,1.58-1.211,1.53-2.224
		c-0.024-1.003-0.491-2.019-1.11-2.873c-0.312-0.396-0.73-0.884-0.969-1.391c-0.266-0.507-0.475-1.031-0.659-1.561
		c-0.366-1.061-0.632-2.145-0.857-3.232c-0.432-2.181-0.71-4.382-0.882-6.591L493.654,270.87z"/>
</g>
<circle fill="#FFFFFF" cx="478.674" cy="260.791" r="2.106"/>
<circle fill="#FFFFFF" cx="506.99" cy="263.967" r="1.831"/>
<g>
	<path fill="#070707" d="M500.963,211.154c-4.879-1.51-9.552-3.648-13.853-6.397c-2.143-1.386-4.179-2.946-6.011-4.73
		c-0.936-0.873-1.719-1.909-2.657-2.721c-0.947-0.823-2.002-1.525-3.119-2.104c-2.236-1.17-4.684-1.906-7.165-2.377
		c-2.485-0.473-5.015-0.698-7.545-0.76c-5.052-0.085-10.161,0.356-15.029,1.637c-0.608,0.169-1.193,0.356-1.788,0.582
		c-0.616,0.222-1.235,0.396-1.851,0.566c-1.229,0.336-2.447,0.65-3.564,1.158c-1.118,0.501-2.119,1.213-2.905,2.131
		c-0.789,0.916-1.375,2.005-1.812,3.155c-0.868,2.312-1.219,4.821-1.397,7.321c-0.171,2.507-0.148,5.034-0.034,7.558
		c0.227,5.056,0.863,10.069,1.535,15.118c0.64,5.051,1.224,10.109,1.717,15.18c0.958,10.142,1.606,20.323,1.733,30.527
		c0.064,5.101-0.007,10.207-0.218,15.306l-0.18,3.821c-0.068,1.3-0.16,2.504-0.096,3.706c0.097,2.413,0.653,4.771,1.728,6.891
		c2.155,4.28,6.215,7.367,10.405,10.045c4.24,2.701,8.725,5.054,13.102,7.839c2.181,1.419,4.251,3.014,6.214,4.676
		c1.969,1.655,3.831,3.362,5.806,4.796c1.969,1.442,4.092,2.574,6.38,3.374c2.285,0.805,4.699,1.317,7.152,1.66
		c2.449,0.338,4.966,0.531,7.442,0.604c2.473,0.059,4.943-0.032,7.282-0.484c2.348-0.448,4.479-1.313,6.318-2.739
		c1.853-1.396,3.564-3.376,5.798-4.994c2.212-1.637,4.803-2.763,7.395-3.439c2.605-0.655,5.077-1.065,7.556-1.58
		c2.455-0.505,4.854-1.062,6.991-1.993c2.141-0.92,3.963-2.27,5.361-4.063c1.405-1.786,2.423-3.949,3.188-6.233
		c0.767-2.288,1.298-4.699,1.706-7.142c0.407-2.445,0.686-4.93,0.893-7.426c0.104-1.255,0.183-2.488,0.259-3.769
		c0.084-1.299,0.19-2.589,0.334-3.875c1.168-10.282,3.601-20.244,6.103-30.119c2.544-9.865,5.358-19.632,7.461-29.494
		c1.002-4.929,1.9-9.898,1.977-14.844c0.022-2.459-0.158-4.927-0.854-7.196c-0.348-1.125-0.835-2.215-1.482-3.133
		c-0.384-0.549-0.701-0.943-1.112-1.399c-0.401-0.435-0.824-0.853-1.284-1.23c-1.82-1.54-4.065-2.581-6.429-3.232
		c-2.369-0.654-4.86-0.935-7.358-0.987c-5.005-0.083-10.053,0.654-14.942,1.904c-1.21,0.336-2.468,0.624-3.592,1.116l-3.558,1.389
		c-2.378,0.909-4.769,1.783-7.167,2.637c-2.4,0.846-4.816,1.653-7.265,2.364c-1.225,0.354-2.457,0.683-3.706,0.953
		c-1.25,0.258-2.513,0.512-3.826,0.455l-0.019-0.001L500.963,211.154z M501.038,210.815c1.229,0.038,2.48-0.222,3.704-0.49
		c1.232-0.282,2.453-0.625,3.667-0.99c2.427-0.736,4.826-1.569,7.21-2.441c2.386-0.869,4.749-1.803,7.101-2.76l3.518-1.461
		c1.199-0.549,2.43-0.859,3.657-1.232c4.922-1.372,9.991-2.354,15.165-2.438c2.582-0.036,5.194,0.159,7.755,0.769
		c2.551,0.606,5.073,1.653,7.21,3.329c0.537,0.411,1.039,0.869,1.518,1.352c0.462,0.468,0.957,1.055,1.316,1.536
		c0.86,1.134,1.455,2.381,1.904,3.666c0.884,2.577,1.153,5.241,1.222,7.854c0.08,5.238-0.628,10.367-1.544,15.412
		c-1.86,10.094-4.539,19.931-6.956,29.786c-2.448,9.835-4.801,19.707-5.884,29.656c-0.128,1.243-0.252,2.485-0.335,3.724
		c-0.083,1.256-0.173,2.56-0.288,3.838c-0.229,2.568-0.533,5.141-0.977,7.709c-0.446,2.567-1.024,5.136-1.889,7.666
		c-0.867,2.52-2.032,5.037-3.799,7.241c-1.747,2.214-4.165,3.946-6.71,4.995c-2.548,1.072-5.147,1.624-7.669,2.119
		c-2.506,0.489-5.058,0.896-7.391,1.458c-2.327,0.587-4.489,1.508-6.389,2.879c-1.921,1.336-3.587,3.233-5.804,4.896
		c-2.202,1.685-4.925,2.746-7.573,3.207c-2.665,0.482-5.31,0.54-7.913,0.453c-2.604-0.106-5.163-0.33-7.748-0.712
		c-2.575-0.383-5.158-0.947-7.665-1.853c-2.507-0.896-4.906-2.205-7.024-3.789c-2.129-1.576-4.004-3.332-5.913-4.962
		c-1.903-1.639-3.857-3.168-5.929-4.541c-4.18-2.713-8.693-5.134-13.011-7.933c-2.159-1.405-4.289-2.918-6.235-4.709
		c-1.942-1.782-3.691-3.889-4.893-6.327c-1.21-2.432-1.815-5.142-1.897-7.806c-0.06-1.341,0.054-2.677,0.129-3.914l0.211-3.795
		c0.251-5.061,0.364-10.126,0.343-15.193c-0.041-10.137-0.601-20.274-1.471-30.388c-0.424-5.059-0.913-10.112-1.474-15.16
		c-0.59-5.039-1.136-10.139-1.272-15.25c-0.069-2.557-0.047-5.123,0.175-7.687c0.231-2.556,0.631-5.137,1.598-7.58
		c0.487-1.215,1.141-2.39,2.034-3.388c0.887-1.002,2.024-1.774,3.234-2.289c1.212-0.523,2.476-0.82,3.701-1.134
		c0.612-0.156,1.22-0.32,1.803-0.52c0.598-0.218,1.227-0.411,1.846-0.574c4.989-1.243,10.122-1.615,15.223-1.467
		c5.078,0.209,10.26,0.983,14.855,3.314c1.139,0.591,2.216,1.308,3.187,2.152c0.986,0.857,1.745,1.869,2.671,2.732
		c1.812,1.765,3.831,3.312,5.957,4.688C491.557,207.191,496.213,209.321,501.038,210.815z"/>
</g>
<path fill="none" stroke="#070707" stroke-width="1.3785" stroke-miterlimit="10" d="M445.071,193.959c0,0-7.866,30.222-4.54,54.449
	c0,0-4.055,9.53-6.038-5.916c-1.984-15.446-3.85-37.666,0.747-42.991C439.836,194.174,445.071,193.959,445.071,193.959z"/>
<path fill="#FFFFFF" stroke="#070707" stroke-width="2.7654" stroke-miterlimit="10" d="M578.599,286.863
	c-1.566,25.669-23.645,45.207-49.314,43.64c-25.667-1.566-45.204-23.644-43.637-49.311c1.565-25.671,23.643-45.206,49.31-43.64
	C560.627,239.118,580.166,261.195,578.599,286.863z"/>
<circle fill="#070707" cx="532.251" cy="283.825" r="36.555"/>
<circle fill="#FFFFFF" cx="499.672" cy="285.995" r="6.424"/>
<g>
	<path fill="#F3E6D4" d="M333.666,278.828c-88.766-39.896-209.643-8.417-304.313,94.438c-9.585-89.193-18.902-182.751-27.89-280.674
		c88.767-66.973,209.643-62.571,304.314,13.207C315.362,167.839,324.678,225.515,333.666,278.828z"/>
</g>
<polyline fill="#A1BC87" points="321.845,32.935 316.81,1.574 290.324,5.827 295.424,37.6 "/>
<polygon fill="#A1BC87" points="354.428,405.162 342.081,328.235 368.569,323.984 381.872,406.858 "/>
<polyline fill="#A1BC87" points="301.945,78.216 335.484,287.147 349.488,283.265 362.059,283.435 328.43,73.959 301.945,78.216 "/>
<path fill="#E27952" d="M643.699,459.61c-6.159,10.104-37.688,28.652-37.688,28.652l-439.797-26.84c0,0-24.075-22.651-28.007-32.664
	c-3.349-8.533-1.099-28.069,2.234-36.602c1.112-2.845,30.895-37.877,30.895-37.877l26.56,40.778l172.132,11.109l0.776,0.048
	l206.403,11.99l37.051-36.895c0,0,27.871,29.169,31.673,41.694C648.592,431.778,648.465,451.777,643.699,459.61z"/>
<path fill="#9E8B78" d="M381.303,321.935l-52.815,8.48c0,0-9.952-27.113-5.578-34.744c6.65-11.603,41.98-16.316,52.816-8.479
	C382.852,292.347,381.303,321.935,381.303,321.935z"/>
<path fill="#9E8B78" d="M295.422,37.6c13.649-5.354,33.57-6.893,40.68-0.504c6.544,5.878,5.578,34.742,5.578,34.742l-52.816,8.48
	c0,0-10.733-27.617-5.578-34.744C285.522,42.482,289.973,39.737,295.422,37.6"/>
<path opacity="0.3" fill="#070707" d="M310.696,34.16l5.233,42.323l19.206-3.081c0,0,2.583-29.108-7.073-40.02L310.696,34.16z"/>
<polygon opacity="0.3" fill="#070707" points="312.339,78.416 346.659,285.072 363.903,282.658 329.754,74.905 "/>
<polygon opacity="0.3" fill="#070707" points="353.842,328.025 365.36,405.875 383.144,406.433 370.421,324.097 "/>
<polygon opacity="0.3" fill="#070707" points="299.463,3.504 305.434,33.929 321.796,32.635 315.498,1.494 "/>
<path opacity="0.3" fill="#070707" d="M351.015,283.418l5.233,42.321l19.206-3.08c0,0,2.583-29.108-7.073-40.02L351.015,283.418z"/>
<polyline opacity="0.3" fill="#070707" points="197.896,395.058 235.937,465.677 444.881,478.429 583.991,486.919 606.011,488.262 
	631.167,471.542 643.699,459.61 646.735,450.181 647.34,430.977 642.936,422.218 634.208,404.269 615.94,383.099 600.707,394.806 
	596.227,400.624 583.244,412.195 577.346,418.06 487.724,413.341 401.591,407.674 196.817,393.402 "/>
<path opacity="0.2" fill="#9E8B78" d="M306.084,107.495l27.581,172.075c0,0-35.267-20.32-89.196-17.434
	c-53.929,2.889-97.419,22.303-113.077,30.283c0,0,85.822-133.866-45.81-239.807c0,0,9.135-8.521,81.981-5.622
	S306.084,107.495,306.084,107.495z"/>
<path fill="none" stroke="#070707" stroke-width="3.0438" stroke-miterlimit="10" d="M643.699,459.61
	c-6.159,10.104-37.688,28.652-37.688,28.652l-439.797-26.84c0,0-24.075-22.651-28.007-32.664
	c-3.349-8.533-1.099-28.069,2.234-36.602c1.112-2.845,30.895-37.877,30.895-37.877l26.56,40.778l172.132,11.109l0.776,0.048
	l206.403,11.99l37.051-36.895c0,0,27.871,29.169,31.673,41.694C648.592,431.778,648.465,451.777,643.699,459.61z"/>
<g>
	<g>
		<path fill="#070707" d="M381.303,321.935c-4.37,0.9-8.749,1.745-13.131,2.575c-4.382,0.826-8.756,1.704-13.145,2.487
			l-13.162,2.383l-13.172,2.316l-1.051,0.186l-0.374-1.02c-1.867-5.096-3.488-10.225-4.833-15.483
			c-0.657-2.631-1.218-5.294-1.627-8.008c-0.386-2.718-0.681-5.476-0.387-8.389c0.08-0.729,0.205-1.469,0.419-2.221
			c0.109-0.376,0.233-0.755,0.403-1.134c0.149-0.365,0.396-0.797,0.562-1.064c0.837-1.348,1.862-2.411,2.975-3.357
			c2.23-1.868,4.726-3.203,7.268-4.309c5.105-2.177,10.461-3.466,15.866-4.198c5.406-0.707,10.89-0.952,16.353-0.313
			c2.726,0.33,5.455,0.861,8.092,1.856c1.313,0.503,2.607,1.128,3.798,1.979c1.318,0.933,2.127,2.277,2.726,3.552
			c1.175,2.605,1.706,5.303,2.126,7.985c0.391,2.689,0.573,5.386,0.681,8.076C381.88,311.216,381.768,316.591,381.303,321.935z
			 M381.303,321.935c-0.015-5.359-0.188-10.716-0.701-16.025c-0.26-2.653-0.622-5.294-1.131-7.887
			c-0.513-2.579-1.165-5.169-2.304-7.411c-0.579-1.109-1.278-2.103-2.2-2.681c-1.012-0.679-2.166-1.198-3.365-1.614
			c-2.408-0.825-4.992-1.254-7.588-1.483c-5.206-0.428-10.505-0.156-15.698,0.644c-5.182,0.828-10.334,2.086-15.079,4.151
			c-2.356,1.038-4.621,2.292-6.492,3.885c-0.924,0.79-1.757,1.699-2.346,2.625c-0.185,0.302-0.272,0.452-0.382,0.706
			c-0.107,0.23-0.194,0.489-0.273,0.756c-0.156,0.535-0.262,1.119-0.332,1.721c-0.268,2.426-0.031,5.05,0.324,7.625
			c0.369,2.588,0.91,5.174,1.517,7.748c1.211,5.146,2.728,10.278,4.454,15.274l-1.425-0.834l13.235-1.924l13.246-1.857
			c4.414-0.631,8.843-1.166,13.263-1.753C372.448,323.017,376.871,322.449,381.303,321.935z"/>
	</g>
</g>
<g>
	<path fill="#070707" d="M295.422,37.6c5.957-2.619,12.359-4.203,18.852-5.044c3.252-0.413,6.549-0.571,9.857-0.375
		c3.296,0.221,6.664,0.706,9.82,2.198c0.783,0.379,1.552,0.819,2.269,1.362c0.707,0.509,1.447,1.257,1.938,2.001
		c1.027,1.51,1.65,3.121,2.174,4.728c1.023,3.224,1.546,6.5,1.956,9.766c0.773,6.547,1.012,13.07,0.871,19.65l-0.026,1.212
		l-1.219,0.2l-13.197,2.161l-13.211,2.079c-4.402,0.697-8.807,1.387-13.216,2.042l-13.225,1.988l-1.041,0.156l-0.343-0.949
		c-1.455-4.029-2.721-8.069-3.834-12.183c-1.093-4.111-2.004-8.287-2.466-12.556c-0.223-2.134-0.304-4.303-0.026-6.482
		c0.147-1.086,0.392-2.183,0.882-3.218c0.503-1.062,1.29-1.86,2.059-2.617C287.496,40.762,291.453,38.997,295.422,37.6
		c-1.934,0.85-3.816,1.811-5.602,2.912c-1.785,1.091-3.49,2.334-4.897,3.833c-0.685,0.755-1.357,1.547-1.704,2.431
		c-0.363,0.901-0.532,1.902-0.605,2.912c-0.14,2.028,0.077,4.099,0.367,6.15c0.616,4.11,1.717,8.162,2.924,12.169
		c1.217,4.001,2.606,7.985,4.141,11.852l-1.383-0.793l13.183-2.251c4.393-0.759,8.791-1.483,13.191-2.198l13.197-2.161l13.211-2.079
		l-1.245,1.412c0.146-6.397,0.047-12.886-0.584-19.25c-0.333-3.177-0.807-6.348-1.643-9.351c-0.429-1.488-0.966-2.951-1.736-4.154
		c-0.396-0.619-0.796-1.055-1.387-1.522c-0.563-0.457-1.198-0.849-1.864-1.197c-2.698-1.37-5.85-2.036-8.999-2.366
		c-3.165-0.322-6.384-0.304-9.593-0.111C307.97,34.258,301.578,35.53,295.422,37.6z"/>
</g>
<g>
	<path fill="#070707" d="M321.845,32.935c-1.277-5.156-2.405-10.337-3.454-15.53c-0.549-2.593-1.02-5.198-1.53-7.797
		c-0.517-2.598-0.952-5.208-1.432-7.812l1.603,1.159c-4.397,0.813-8.816,1.494-13.224,2.248c-4.422,0.665-8.831,1.4-13.263,2.004
		l1.159-1.602c0.365,2.658,0.775,5.308,1.102,7.971c0.334,2.662,0.708,5.318,1.004,7.987c0.641,5.329,1.202,10.671,1.614,16.037
		c-1.288-5.225-2.427-10.474-3.486-15.736c-0.554-2.627-1.03-5.266-1.547-7.899c-0.522-2.632-0.962-5.277-1.448-7.916l-0.247-1.342
		l1.405-0.26c4.397-0.814,8.816-1.495,13.224-2.249c4.422-0.664,8.831-1.4,13.263-2.005L318.005,0l0.186,1.352
		c0.359,2.623,0.764,5.239,1.086,7.868c0.328,2.628,0.697,5.25,0.987,7.884C320.894,22.364,321.444,27.637,321.845,32.935z"/>
</g>
<polygon fill="none" stroke="#070707" stroke-width="3.0438" stroke-miterlimit="10" points="354.428,405.162 342.081,328.235 
	368.569,323.984 381.872,406.858 "/>
<g>
	<path fill="#070707" d="M333.666,278.828c-25.911-11.52-54.388-16.717-82.628-16.287c-28.294,0.38-56.329,6.264-82.841,15.925
		c-26.541,9.696-51.578,23.288-74.641,39.565c-23.09,16.276-44.173,35.301-63.29,56.076l-1.853,2.014l-0.295-2.722
		c-5.067-46.74-9.934-93.501-14.62-140.28l-6.896-70.182C4.341,139.54,2.209,116.129,0.071,92.72L0,91.945l0.621-0.469
		c21.998-16.591,46.892-29.38,73.281-37.34c26.375-8.002,54.177-11.161,81.666-9.506c27.508,1.601,54.643,8.109,80.088,18.525
		c25.467,10.421,49.24,24.783,70.63,42.007l0.249,0.2l0.048,0.312l13.28,86.615C324.36,221.152,328.956,250,333.666,278.828z
		 M333.666,278.828c-5.001-28.779-9.888-57.58-14.676-86.396l-7.112-43.236c-2.362-14.414-4.627-28.844-6.906-43.271l0.296,0.511
		c-21.373-17.013-45.075-31.142-70.4-41.337c-25.301-10.224-52.229-16.404-79.444-17.985c-27.208-1.586-54.695,1.592-80.753,9.551
		C48.597,64.582,24.02,77.265,2.305,93.708l0.55-1.244l6.612,70.199l6.764,70.184c4.598,46.781,9.377,93.544,14.356,140.286
		l-2.148-0.708c19.246-20.883,40.633-39.831,63.926-56.092c23.289-16.24,48.546-29.767,75.289-39.366
		c26.702-9.623,54.98-15.158,83.376-15.279C279.383,261.542,307.873,267.048,333.666,278.828z"/>
</g>
<g>
	<path fill="#070707" d="M156.951,393.133c2.23,1.784,4.415,3.618,6.611,5.439c2.203,1.814,4.377,3.66,6.549,5.509
		c4.342,3.699,8.649,7.438,12.933,11.202l-0.564-0.235c5.02,0.256,10.037,0.547,15.053,0.855c5.015,0.322,10.031,0.645,15.042,1.026
		c5.013,0.366,10.023,0.769,15.03,1.218c2.505,0.212,5.007,0.464,7.509,0.715c2.502,0.245,5.005,0.491,7.504,0.785
		c-2.517-0.012-5.031-0.072-7.544-0.133c-2.514-0.056-5.028-0.109-7.54-0.203c-5.025-0.162-10.047-0.372-15.067-0.618
		c-5.021-0.229-10.038-0.52-15.055-0.81c-5.017-0.304-10.032-0.625-15.045-0.98l-0.332-0.023l-0.232-0.212
		c-4.208-3.85-8.391-7.726-12.54-11.641c-2.073-1.959-4.144-3.92-6.187-5.913C161.026,397.129,158.966,395.157,156.951,393.133z"/>
</g>
<g>
	<polygon fill="#070707" points="274.311,421.584 308.642,423.436 342.964,425.442 411.609,429.463 480.233,433.818 514.544,436 
		548.846,438.338 514.514,436.489 480.192,434.482 411.548,430.459 342.924,426.104 308.613,423.921 	"/>
</g>
<g>
	<path fill="#070707" d="M581.527,440.333c2.497-2.559,5.166-4.876,7.896-7.109c2.72-2.248,5.526-4.375,8.382-6.434
		c2.86-2.053,5.771-4.034,8.77-5.896c2.987-1.876,6.036-3.665,9.26-5.212c-2.494,2.562-5.163,4.881-7.894,7.113
		c-2.721,2.247-5.527,4.374-8.386,6.43c-2.862,2.05-5.772,4.031-8.771,5.892C587.796,436.992,584.748,438.783,581.527,440.333z"/>
</g>
<g>
	<polygon fill="#070707" points="223.67,440.63 258.002,442.482 292.325,444.489 360.969,448.51 429.592,452.866 463.905,455.047 
		498.207,457.386 463.875,455.536 429.552,453.529 360.908,449.506 292.285,445.15 257.973,442.967 	"/>
</g>
<g>
	<path fill="#070707" d="M141.192,406.167c6.175,4.719,12.063,9.749,17.912,14.821c2.893,2.571,5.81,5.115,8.653,7.739l4.285,3.914
		l4.234,3.969l-0.899-0.384c2.797,0.173,5.59,0.422,8.384,0.648c2.795,0.212,5.584,0.511,8.376,0.771
		c2.791,0.292,5.581,0.583,8.367,0.933c2.788,0.335,5.573,0.71,8.354,1.147c-2.814,0.097-5.624,0.13-8.432,0.124
		c-2.808,0.009-5.613-0.042-8.418-0.091c-2.803-0.081-5.608-0.123-8.409-0.252c-2.801-0.115-5.604-0.207-8.401-0.375l-0.512-0.03
		l-0.388-0.354l-4.29-3.909l-4.239-3.964c-2.839-2.629-5.605-5.336-8.395-8.018C151.859,417.427,146.382,411.953,141.192,406.167z"
		/>
</g>
<g>
	<path fill="#070707" d="M534.394,459.594c5.194,0.032,10.385,0.14,15.57,0.31c5.187,0.171,10.369,0.396,15.55,0.655
		c5.18,0.275,10.36,0.543,15.535,0.897c5.177,0.324,10.35,0.707,15.521,1.111l-0.59,0.202c2.939-2.478,5.89-4.942,8.863-7.381
		l4.489-3.626c1.492-1.212,2.997-2.411,4.52-3.59c-1.366,1.356-2.75,2.693-4.146,4.016l-4.177,3.98
		c-2.804,2.633-5.631,5.238-8.469,7.831l-0.238,0.217l-0.352-0.015c-5.183-0.228-10.364-0.477-15.542-0.784
		c-5.18-0.277-10.354-0.642-15.528-0.998c-5.174-0.372-10.346-0.779-15.514-1.24C544.718,460.718,539.554,460.194,534.394,459.594z"
		/>
</g>
<polyline fill="none" stroke="#070707" stroke-width="3.0438" stroke-miterlimit="10" points="301.945,78.216 335.484,287.147 
	349.488,283.265 362.059,283.435 328.43,73.959 301.945,78.216 "/>
<path fill="none" d="M42.869,336.808c0,0,160.113-136.574,308.435-62.144"/>
<text transform="matrix(0.8217 -0.57 0.57 0.8217 51.2217 329.7417)"><tspan x="0" y="0" opacity="0.33" fill="#020202" font-family="'Calibri'" font-size="41.7513">m</tspan><tspan x="33.01" y="0.283" opacity="0.33" fill="#020202" font-family="'Calibri'" font-size="41.7513" rotate="2.764">i</tspan><tspan x="42.374" y="0.656" opacity="0.33" fill="#020202" font-family="'Calibri'" font-size="41.7513" rotate="4.568">k</tspan><tspan x="60.986" y="2.115" opacity="0.33" fill="#020202" font-family="'Calibri'" font-size="41.7513" rotate="7.132">e</tspan><tspan x="81.279" y="4.646" opacity="0.33" fill="#020202" font-family="'Calibri'" font-size="41.7513" rotate="9.921">T</tspan><tspan x="100.973" y="8.052" opacity="0.33" fill="#020202" font-family="'Calibri'" font-size="41.7513" rotate="12.996">h</tspan><tspan x="121.981" y="12.896" opacity="0.33" fill="#020202" font-family="'Calibri'" font-size="41.7513" rotate="16.371">e</tspan><tspan x="141.482" y="18.504" opacity="0.33" fill="#020202" font-family="'Calibri'" font-size="41.7513" rotate="20.396">D</tspan><tspan x="165.05" y="27.331" opacity="0.33" fill="#020202" font-family="'Calibri'" font-size="41.7513" rotate="24.852">e</tspan><tspan x="183.475" y="35.874" opacity="0.33" fill="#020202" font-family="'Calibri'" font-size="41.7513" rotate="29.018">v</tspan></text>
<path fill="#FAF0C7" stroke="#0C0C0C" stroke-width="0.887" d="M345.138,338.747c0.084,1.506-1.105,2.796-2.658,2.879
	c-1.551,0.087-2.874-1.063-2.959-2.568c-0.083-1.509,1.107-2.796,2.658-2.881C343.731,336.089,345.057,337.239,345.138,338.747z"/>
<path fill="#FAF0C7" stroke="#0C0C0C" stroke-width="0.887" d="M347.131,344.119c0.093,1.7-1.25,3.16-3.005,3.258
	c-1.752,0.095-3.25-1.205-3.345-2.907c-0.094-1.702,1.252-3.161,3.005-3.258C345.54,341.118,347.038,342.417,347.131,344.119z"/>
<ellipse transform="matrix(0.9985 -0.0554 0.0554 0.9985 -18.8704 19.6674)" fill="#FAF0C7" stroke="#0C0C0C" stroke-width="0.887" cx="345.366" cy="350.255" rx="3.032" ry="2.943"/>
<ellipse transform="matrix(0.9985 -0.0551 0.0551 0.9985 -19.0552 19.6078)" fill="#FAF0C7" stroke="#0C0C0C" stroke-width="0.887" cx="346.151" cy="355.458" rx="2.535" ry="2.462"/>
<g>
	<path fill="#FFFFFF" d="M18.548,471.795c0,0,124.485-33.871,131.625-63.215c0,0,8.478,53.061,35.208,51.125"/>
	<path fill="#0C0C0C" d="M18.548,471.795c5.94-1.801,11.863-3.652,17.766-5.563c5.897-1.927,11.783-3.884,17.655-5.879
		c11.737-4.011,23.366-8.322,34.882-12.891c11.494-4.611,22.846-9.618,33.707-15.498c5.422-2.94,10.732-6.116,15.602-9.842
		c2.423-1.869,4.739-3.881,6.749-6.139c1.988-2.251,3.719-4.796,4.427-7.607l1.691,0.068c0.95,5.44,2.229,10.891,3.817,16.215
		c1.601,5.325,3.526,10.564,5.991,15.543c2.488,4.944,5.446,9.742,9.491,13.549c2.017,1.89,4.326,3.494,6.894,4.549
		c2.561,1.062,5.367,1.554,8.164,1.405c-2.784,0.267-5.648-0.074-8.295-1.07c-2.65-0.986-5.067-2.548-7.191-4.409
		c-4.257-3.751-7.461-8.531-10.062-13.515c-2.604-5.003-4.66-10.265-6.389-15.617c-1.711-5.365-3.145-10.796-4.124-16.377
		l1.691,0.067c-0.803,3.249-2.687,5.99-4.761,8.382c-2.104,2.395-4.484,4.485-6.958,6.42c-4.969,3.854-10.328,7.104-15.79,10.114
		c-10.974,5.947-22.44,10.84-33.999,15.41c-11.563,4.576-23.334,8.582-35.162,12.373c-5.912,1.903-11.855,3.708-17.826,5.414
		C30.55,468.615,24.571,470.289,18.548,471.795z"/>
</g>
<g>
	<path fill="#A6D4FD" d="M37.123,472.05c0,0,104.251-26.934,110.342-49.855c0,0,6.873,41.361,29.236,39.741"/>
	<path fill="#0C0C0C" d="M37.123,472.05c4.93-1.454,9.851-2.932,14.755-4.459l14.679-4.679c9.763-3.186,19.445-6.6,29.052-10.188
		c9.592-3.623,19.066-7.575,28.195-12.166c4.558-2.298,9.03-4.782,13.173-7.701c2.062-1.465,4.042-3.045,5.782-4.826
		c1.718-1.776,3.247-3.801,3.877-6.057l1.674,0.079c0.787,4.311,1.831,8.648,3.171,12.858c1.343,4.214,2.968,8.349,5.051,12.242
		c2.103,3.863,4.604,7.588,7.977,10.439c1.68,1.417,3.58,2.591,5.657,3.343c2.07,0.765,4.306,1.103,6.534,0.999
		c-2.217,0.22-4.5,0.025-6.647-0.665c-2.151-0.681-4.153-1.807-5.936-3.191c-3.572-2.792-6.334-6.484-8.55-10.391
		c-2.224-3.92-3.979-8.08-5.45-12.324c-1.445-4.26-2.683-8.566-3.499-13.029l1.674,0.08c-0.751,2.734-2.447,4.937-4.254,6.851
		c-1.837,1.911-3.88,3.563-5.992,5.091c-4.239,3.037-8.758,5.592-13.352,7.957c-9.221,4.682-18.815,8.492-28.464,12.078
		c-9.652,3.592-19.464,6.713-29.316,9.666c-4.924,1.483-9.871,2.892-14.841,4.209C47.107,469.596,42.133,470.895,37.123,472.05z"/>
</g>
<g>
	<path fill="#FFFFFF" d="M81.596,478.585c0,0,113.063-29.678,119.632-55.078c0,0,7.528,45.863,31.79,44.106"/>
	<path fill="#0C0C0C" d="M81.596,478.585c5.363-1.59,10.712-3.213,16.045-4.89c5.328-1.693,10.648-3.403,15.957-5.146
		c10.61-3.507,21.132-7.27,31.564-11.237c10.415-4.007,20.703-8.369,30.594-13.458c4.938-2.548,9.782-5.299,14.254-8.533
		c2.227-1.622,4.363-3.37,6.232-5.343c1.848-1.964,3.485-4.197,4.154-6.686l1.68,0.076c0.856,4.757,2.001,9.535,3.452,14.184
		c1.457,4.651,3.217,9.219,5.472,13.533c2.275,4.281,4.985,8.417,8.65,11.62c1.828,1.589,3.901,2.918,6.18,3.774
		c2.271,0.866,4.733,1.255,7.188,1.134c-2.442,0.237-4.954-0.005-7.307-0.8c-2.355-0.786-4.532-2.067-6.465-3.626
		c-3.869-3.146-6.835-7.253-9.223-11.577c-2.395-4.34-4.285-8.932-5.87-13.612c-1.562-4.695-2.889-9.445-3.773-14.352l1.68,0.075
		c-0.782,2.955-2.582,5.373-4.518,7.475c-1.965,2.104-4.165,3.927-6.442,5.612c-4.57,3.356-9.461,6.179-14.437,8.794
		c-9.99,5.174-20.396,9.402-30.871,13.37c-10.478,3.974-21.132,7.438-31.833,10.718c-5.349,1.646-10.722,3.209-16.122,4.678
		C92.444,475.847,87.039,477.293,81.596,478.585z"/>
</g>
<g>
	<path fill="#A6D4FD" d="M106.284,478.29c0,0,86.788-22.423,91.859-41.503c0,0,5.721,34.433,24.338,33.083"/>
	<path fill="#0C0C0C" d="M106.284,478.29c4.098-1.235,8.189-2.48,12.267-3.769l12.201-3.952c8.113-2.688,16.183-5.498,24.161-8.53
		c7.963-3.06,15.871-6.284,23.455-10.119c3.786-1.916,7.5-3.987,10.932-6.413c1.709-1.216,3.358-2.514,4.8-3.981
		c1.426-1.462,2.688-3.126,3.208-4.96l1.689,0.08c0.634,3.579,1.514,7.187,2.623,10.685c1.122,3.5,2.449,6.942,4.162,10.187
		c1.728,3.219,3.795,6.319,6.584,8.698c2.75,2.393,6.381,3.839,10.116,3.655c-1.844,0.192-3.749,0.043-5.543-0.525
		c-1.797-0.561-3.472-1.493-4.965-2.644c-2.992-2.319-5.307-5.393-7.174-8.642c-1.873-3.261-3.359-6.724-4.579-10.265
		c-1.21-3.553-2.23-7.141-2.93-10.866l1.689,0.081c-0.63,2.32-2.054,4.175-3.562,5.784c-1.537,1.606-3.237,2.999-5.001,4.273
		c-3.545,2.532-7.317,4.656-11.149,6.622c-3.833,1.968-7.768,3.711-11.724,5.38c-3.959,1.665-7.958,3.223-11.99,4.684
		c-8.056,2.944-16.215,5.576-24.431,7.997c-4.107,1.213-8.231,2.365-12.374,3.447C114.607,476.286,110.461,477.353,106.284,478.29z"
		/>
</g>
<g>
	<path fill="#FDFBF8" d="M538.906,476.848c0,0,92.688-23.946,98.105-44.326c0,0,6.109,36.774,25.994,35.333"/>
	<path fill="#0C0C0C" d="M538.906,476.848c4.379-1.31,8.751-2.633,13.108-4.002l13.042-4.187c8.675-2.844,17.276-5.896,25.815-9.086
		c8.525-3.224,16.942-6.745,25.054-10.822c4.05-2.039,8.023-4.244,11.701-6.832c1.831-1.299,3.588-2.699,5.13-4.276
		c1.522-1.572,2.872-3.362,3.426-5.341l1.675,0.079c0.697,3.824,1.615,7.683,2.801,11.423c1.188,3.745,2.625,7.42,4.47,10.88
		c1.863,3.433,4.072,6.746,7.061,9.284c2.944,2.553,6.829,4.092,10.817,3.887c-1.97,0.201-4.002,0.037-5.917-0.572
		c-1.916-0.602-3.701-1.6-5.293-2.828c-3.188-2.479-5.657-5.761-7.635-9.236c-1.984-3.486-3.553-7.188-4.866-10.962
		c-1.291-3.79-2.402-7.617-3.129-11.594l1.675,0.08c-0.675,2.457-2.192,4.426-3.804,6.135c-1.639,1.706-3.459,3.179-5.339,4.54
		c-3.773,2.708-7.794,4.983-11.881,7.09c-8.204,4.168-16.74,7.548-25.323,10.733c-8.584,3.193-17.314,5.952-26.079,8.565
		c-4.381,1.313-8.781,2.557-13.205,3.716C547.791,474.692,543.364,475.837,538.906,476.848z"/>
</g>
<g>
	<path fill="#A6D4FD" d="M558.622,478.091c0,0,70.7-18.266,74.83-33.811c0,0,4.662,28.05,19.827,26.951"/>
	<path fill="#0C0C0C" d="M558.622,478.091l9.975-3.133l9.924-3.266c6.6-2.215,13.165-4.521,19.656-6.999
		c6.479-2.503,12.916-5.129,19.083-8.248c3.08-1.557,6.1-3.239,8.886-5.206c1.387-0.984,2.725-2.033,3.892-3.217
		c1.153-1.177,2.166-2.515,2.579-3.964l1.689,0.08c0.51,2.901,1.215,5.843,2.108,8.688c0.905,2.847,1.972,5.649,3.353,8.29
		c1.395,2.62,3.055,5.148,5.309,7.092c2.222,1.953,5.159,3.147,8.204,3.023c-1.501,0.167-3.057,0.059-4.526-0.397
		c-1.471-0.45-2.844-1.206-4.07-2.14c-2.456-1.884-4.365-4.385-5.899-7.034c-1.54-2.658-2.766-5.481-3.769-8.37
		c-0.996-2.898-1.839-5.82-2.416-8.868l1.689,0.081c-0.523,1.935-1.697,3.464-2.935,4.789c-1.26,1.32-2.65,2.464-4.093,3.509
		c-2.898,2.072-5.976,3.808-9.103,5.413c-6.276,3.169-12.771,5.808-19.342,8.193c-6.569,2.391-13.225,4.518-19.927,6.465
		c-3.351,0.977-6.716,1.9-10.097,2.762C565.415,476.503,562.032,477.356,558.622,478.091z"/>
</g>
</svg>
