<?xml version="1.0" encoding="utf-8"?>
<!-- Generator: Adobe Illustrator 15.0.0, SVG Export Plug-In  -->
<!DOCTYPE svg PUBLIC "-//W3C//DTD SVG 1.1//EN" "http://www.w3.org/Graphics/SVG/1.1/DTD/svg11.dtd" [
	<!ENTITY ns_flows "http://ns.adobe.com/Flows/1.0/">
]>
<svg version="1.1"
	 xmlns="http://www.w3.org/2000/svg" xmlns:xlink="http://www.w3.org/1999/xlink" xmlns:a="http://ns.adobe.com/AdobeSVGViewerExtensions/3.0/"
	 x="0px" y="0px" width="444px" height="356px" viewBox="0 -8.503 444 356"
	 overflow="visible" enable-background="new 0 -8.503 444 356" xml:space="preserve">
<defs>
</defs>
<path fill="#F9F9F9" stroke="#070707" stroke-width="1.783" stroke-miterlimit="10" d="M201.685,82.058l4.875,49.653l14.518,3.384
	l11.072,12.839l-41.37-4.457l-1.788-67.733c0,0-6.854-2.717-5.344-10.389"/>
<path fill="none" stroke="#070707" stroke-width="1.783" stroke-miterlimit="10" d="M293.246,73.004c0,0-34.783,37.69-35.358,60.773
	"/>
<path fill="#FAF0C7" d="M263.552,79.595l8.02,16.146c0,0,11.521-0.344,15.272-5.421c3.751-5.078,3.791-16.066-5.306-19.327
	l-3.531-0.374l-6.436,2.785L263.552,79.595z"/>
<path fill="#FAF0C7" d="M212.044,27.98l16.298,7.725l13.117,4.413l18.067,7.345c0,0,4.644,6.087,4.433,7.869
	c-0.212,1.782-2.146,9.026-2.146,9.026l-11.88,9.102l7.388,4.243l6.645-5.997l5.562-3.714l3.022-1.413l8.156-1.214
	c0,0,9.008,0.701,11.332,7.934l-3.73,4.404c0,0-8.523-6.514-13.396-4.428s-9.495,6.132-9.495,6.132l8.504,16.334l-4.854,7.384
	l-4.358,7.331l-2.33,4.656l-1.338,2.922l-1.14,2.674l-0.942,2.625l-0.692,2.377l-0.694,2.823l-0.494,3.121l-0.1,2.814
	c0,0-15.748-1.098-24.415,0l0.297-9.369l-2.326,2.859l-6.233,3.434c0,0-3.789,1.296-9.983,0.682
	c-6.194-0.615-8.725,1.2-13.781-3.507s-8.419-11.895-8.419-11.895s-3.171,3.526-4.568-2.249c0,0-0.966-3.683,3.491-2.187
	c0,0,0.859-0.781-2.519-5.026c-3.376-4.246-0.932-7.536,2.807-4.246l0.576-4.043c0,0-5.554-3.926-7.669-7.58
	s-3.171-4.095-0.848-5.61c2.324-1.518,10.241-5.648,12.83-9.536C198.806,72.306,208.889,56.041,212.044,27.98z"/>
<path fill="#FAF0C7" stroke="#070707" stroke-width="0.5943" stroke-miterlimit="10" d="M184.309,66.718c0,0-0.646,5.992,5.547,8.42
	l5.746,0.594l-8.767-7.676L184.309,66.718z"/>
<path fill="#FAF0C7" d="M247.257,42.474c0,0,16.138,1.623,19.109,9.363c0,0,0.9,2.991-2.22,7.6c-3.12,4.61-6.078,6.836-11.88,11.789
	S272.416,56.318,247.257,42.474z"/>
<g>
	<path fill="#070707" d="M271.571,79.534c1.889-1.68,4.13-3.148,6.795-3.509c1.317-0.183,2.804,0.186,3.84,1.134
		c1.042,0.937,1.618,2.209,2.005,3.457c0.362,1.258,0.559,2.615,0.318,3.961c-0.239,1.34-0.97,2.6-2.006,3.448
		c-2.084,1.71-4.75,2.271-7.274,2.295c1.258-0.183,2.497-0.47,3.662-0.93c1.168-0.435,2.281-1.035,3.152-1.875
		c0.865-0.838,1.468-1.905,1.633-3.081c0.187-1.17,0.012-2.396-0.341-3.564c-0.341-1.168-0.869-2.295-1.716-3.087
		c-0.833-0.816-2.019-1.139-3.219-1.077c-1.208,0.059-2.412,0.457-3.55,0.971C273.717,78.173,272.624,78.821,271.571,79.534z"/>
</g>
<g>
	<path fill="#070707" d="M266.884,76.528c1.65-1.565,3.532-2.875,5.519-4.031c2.009-1.103,4.192-2.017,6.581-2.28
		c1.188-0.133,2.431-0.085,3.628,0.256c1.198,0.33,2.328,0.954,3.259,1.779c1.872,1.679,2.902,3.958,3.591,6.186
		c0.646,2.248,0.998,4.676,0.564,7.085c-0.431,2.401-1.75,4.65-3.596,6.175c-1.826,1.559-4.01,2.524-6.22,3.155
		c-2.229,0.581-4.504,0.935-6.779,0.888c2.24-0.341,4.443-0.858,6.514-1.687c2.072-0.794,4.034-1.879,5.587-3.353
		c1.541-1.479,2.599-3.373,2.89-5.454c0.33-2.071,0.02-4.244-0.606-6.321c-0.603-2.074-1.539-4.073-3.035-5.474
		c-1.469-1.438-3.56-2.023-5.688-1.904c-2.137,0.121-4.281,0.802-6.315,1.698C270.718,74.122,268.769,75.269,266.884,76.528z"/>
</g>
<rect x="223.197" y="185.529" fill="#F9F9F9" stroke="#070707" stroke-width="1.783" stroke-miterlimit="10" width="17.688" height="48.203"/>
<rect x="234.206" y="185.857" fill="#F9F9F9" stroke="#070707" stroke-width="1.8206" stroke-miterlimit="10" width="17.689" height="50.25"/>
<g>
	<path fill="#070707" d="M297.665,43.736c-6.214-0.338-12.407-1.14-18.533-2.315c-6.133-1.156-12.18-2.774-18.106-4.751
		c-5.932-1.966-11.743-4.291-17.44-6.844c-5.706-2.524-11.244-5.443-16.866-7.93c-1.405-0.609-2.82-1.183-4.24-1.626
		c-1.408-0.44-2.86-0.773-4.128-0.658c-1.269,0.108-2.175,0.739-2.793,1.901c-0.619,1.144-0.934,2.599-1.129,4.059
		c-0.201,1.46-0.221,2.985-0.356,4.586c-0.126,1.581-0.3,3.146-0.519,4.709c-0.442,3.125-1.079,6.216-1.856,9.266
		c-1.567,6.098-3.695,12.036-6.296,17.749c-2.626,5.71-5.579,11.225-9.157,16.459l-0.096,0.141l-0.137,0.095
		c-2.655,1.83-5.419,3.512-8.227,5.062c-1.385,0.785-2.846,1.514-4.052,2.368c-0.292,0.215-0.558,0.444-0.73,0.672
		c-0.172,0.232-0.239,0.422-0.229,0.67c0.032,0.52,0.45,1.208,0.885,1.817c0.898,1.249,1.944,2.471,2.969,3.688
		c1.024,1.225,2.062,2.403,3.255,3.428c1.177,0.987,2.536,1.97,4.067,1.992c0.754,0.012,1.488-0.349,2.005-0.934
		c0.521-0.581,0.88-1.316,1.088-2.084c-0.15,0.782-0.45,1.551-0.948,2.202c-0.488,0.652-1.274,1.13-2.128,1.181
		c-0.852,0.059-1.674-0.206-2.414-0.556c-0.743-0.356-1.428-0.811-2.072-1.305c-1.294-0.983-2.435-2.156-3.535-3.309
		c-1.102-1.162-2.234-2.282-3.262-3.581c-0.483-0.67-1.049-1.337-1.213-2.425c-0.071-0.552,0.129-1.166,0.429-1.576
		c0.296-0.42,0.639-0.721,0.977-0.994c1.364-1.045,2.751-1.788,4.107-2.634c2.718-1.646,5.348-3.395,7.878-5.29l-0.232,0.235
		c3.353-5.098,6.249-10.614,8.734-16.237c2.477-5.64,4.572-11.451,6.064-17.412c0.749-2.979,1.343-5.992,1.776-9.025
		c0.22-1.515,0.396-3.041,0.522-4.56c0.137-1.496,0.163-3.088,0.391-4.711c0.231-1.606,0.551-3.258,1.414-4.863
		c0.433-0.792,1.049-1.576,1.882-2.137c0.827-0.567,1.811-0.855,2.727-0.934c1.849-0.14,3.485,0.294,5.028,0.781
		c1.543,0.505,3.005,1.124,4.444,1.769c2.87,1.299,5.646,2.713,8.429,4.099c2.778,1.392,5.562,2.757,8.354,4.1
		c5.588,2.674,11.28,5.12,17.107,7.215c5.827,2.094,11.776,3.85,17.81,5.287C285.35,42,291.485,43.019,297.665,43.736z"/>
</g>
<g>
	<path fill="#887343" d="M215.392,53.398c0,0,20.716-6.652,18.039,10.724C233.431,64.122,248.719,35.079,215.392,53.398z"/>
	<path fill="#070707" d="M215.392,53.398c2.077-0.832,4.271-1.405,6.526-1.69c2.249-0.287,4.607-0.267,6.912,0.469
		c1.141,0.385,2.256,0.993,3.183,1.858c0.931,0.858,1.643,1.964,2.064,3.138c0.847,2.364,0.826,4.827,0.489,7.124l-2.152-0.71
		c1.342-2.738,2.492-5.709,3.104-8.639c0.288-1.459,0.387-2.965,0.068-4.205c-0.312-1.245-1.165-2.02-2.506-2.286
		c-1.319-0.274-2.86-0.136-4.353,0.159c-1.5,0.309-3.01,0.729-4.496,1.241C221.252,50.87,218.329,52.136,215.392,53.398z
		 M215.392,53.398c2.647-1.795,5.42-3.412,8.358-4.757c1.474-0.661,2.984-1.278,4.584-1.704c1.597-0.411,3.281-0.757,5.116-0.48
		c0.905,0.147,1.87,0.493,2.664,1.159c0.8,0.658,1.335,1.586,1.613,2.495c0.556,1.846,0.352,3.611,0.078,5.265
		c-0.621,3.327-1.863,6.33-3.358,9.282l-3.217,6.351l1.064-7.061c0.314-2.082,0.44-4.215-0.169-6.091
		c-0.303-0.931-0.777-1.776-1.434-2.483c-0.657-0.705-1.501-1.258-2.444-1.65c-1.891-0.813-4.088-1.027-6.265-1.03
		C219.796,52.721,217.582,52.96,215.392,53.398z"/>
</g>
<g>
	<path fill="#F9F9F9" d="M208.363,69.064c5.312-7.776,12.306-12.247,15.62-9.983c3.315,2.263,1.702,10.404-3.605,18.182
		c-5.312,7.778-12.302,12.248-15.617,9.984C201.44,84.984,203.057,76.842,208.363,69.064z"/>
	<path fill="#070707" d="M208.363,69.064c1.862-2.737,4.017-5.295,6.546-7.467c1.272-1.072,2.627-2.082,4.185-2.785
		c0.776-0.349,1.604-0.627,2.494-0.711c0.88-0.097,1.855,0.053,2.677,0.567c0.797,0.507,1.394,1.375,1.681,2.228
		c0.313,0.869,0.422,1.766,0.441,2.645c0.027,1.762-0.279,3.477-0.751,5.124c-0.958,3.303-2.535,6.337-4.437,9.172
		c-1.923,2.769-4.189,5.371-6.91,7.459c-1.358,1.045-2.847,1.952-4.498,2.57c-0.826,0.302-1.701,0.528-2.626,0.552
		c-0.924,0.03-1.881-0.17-2.714-0.773c-0.3-0.221-0.711-0.649-0.935-1.022c-0.256-0.391-0.423-0.819-0.547-1.247
		c-0.246-0.86-0.289-1.733-0.247-2.584c0.087-1.706,0.533-3.336,1.07-4.911c0.533-1.58,1.235-3.091,2.001-4.562
		C206.557,71.846,207.422,70.428,208.363,69.064z M208.363,69.064c-1.842,2.749-3.389,5.726-4.303,8.901
		c-0.454,1.58-0.735,3.223-0.704,4.835c0.032,1.586,0.448,3.262,1.711,4.048c1.165,0.705,2.827,0.388,4.203-0.262
		c1.42-0.645,2.712-1.606,3.931-2.636c2.432-2.093,4.526-4.574,6.355-7.261c0.905-1.312,1.758-2.707,2.497-4.134
		c0.747-1.428,1.427-2.893,1.94-4.41c0.519-1.509,0.939-3.065,1.023-4.623c0.091-1.526-0.184-3.168-1.316-4.03
		c-1.145-0.859-2.894-0.656-4.371-0.1c-1.514,0.56-2.94,1.419-4.245,2.421C212.461,63.822,210.253,66.348,208.363,69.064z"/>
</g>
<ellipse transform="matrix(0.8725 0.4887 -0.4887 0.8725 63.6047 -92.7491)" fill="#0C0C0C" stroke="#070707" stroke-width="0.6968" stroke-miterlimit="10" cx="209.502" cy="75.487" rx="2.524" ry="5.923"/>
<path fill="none" stroke="#070707" stroke-width="1.7173" stroke-miterlimit="10" d="M228.771,129.981
	c-24.789,5.04-33.564-4.138-36.32-13.884c-2.141,0.927-4.896,1.426-4.721-2.234c0.133-3.02,1.918-3.115,3.814-2.426
	c-0.088-0.618-0.132-1.213-0.152-1.807c-2.935-2.829-6.021-6.704-3.685-8.844c0,0,1.499,0.094,3.837,1.831
	c0.31-2.64,0.729-4.352,0.729-4.352"/>
<path fill="#887343" stroke="#070707" stroke-width="2.3774" stroke-miterlimit="10" d="M232.04,26.89
	c12.925-0.345,17.387,11.637,16.198,6.585c-0.091-0.385-0.216-0.764-0.369-1.135c-1.869-4.514-7.979-7.991-7.979-7.991
	c18.892,1.472,18.355,17.771,18.355,17.771s22.188-26.375-18.355-34.166c-40.543-7.791-26.848,20.025-26.848,20.025
	c31.668,16.99,47.536,11.099,53.324,25.518c2.937,7.318-14.462,19.507-14.462,19.507l7.924,4.375
	c25.357-24.743,33.418-4.375,33.418-4.375c38.965-30.704-31.774-54.563-31.774-54.563"/>
<path opacity="0.25" fill="#070707" d="M261.472,18.441c0,0,17.132,5.947,25.536,12.293s17.659,13.051,17.951,24.419
	c0.293,11.368-11.713,17.85-11.713,17.85s-3.656-9.193-12.539-7.64s-20.879,12.015-20.879,12.015l-7.924-4.375
	c0,0,15.537-11.864,14.037-20.466c-1.5-8.602-9.071-8.342-9.071-8.342S269.201,28.607,261.472,18.441z"/>
<g>
	<path fill="#070707" d="M218.751,131.331c1.743-0.197,3.442-0.477,5.086-0.887c1.638-0.418,3.229-0.95,4.638-1.729
		c1.425-0.743,2.629-1.767,3.483-2.993c0.84-1.241,1.3-2.712,1.442-4.273l2.304,0.149c-0.075,1.248-0.197,2.505-0.295,3.758
		c-0.085,1.255-0.229,2.508-0.328,3.762l-0.355,3.762c-0.088,1.255-0.271,2.508-0.174,3.773c-0.518-1.19-0.665-2.496-0.838-3.757
		c-0.162-1.271-0.243-2.544-0.312-3.815c-0.044-1.271-0.102-2.542-0.082-3.812c0.008-1.271,0.008-2.535,0.08-3.81l2.304,0.149
		c-0.062,0.946-0.21,1.906-0.512,2.838c-0.306,0.928-0.763,1.817-1.341,2.613c-1.142,1.624-2.812,2.738-4.51,3.477
		c-1.728,0.707-3.524,1.069-5.309,1.181C222.25,131.821,220.469,131.73,218.751,131.331z"/>
</g>
<path fill="#EEB8CC" stroke="#070707" stroke-width="1.783" stroke-miterlimit="10" d="M189.783,52.844l17.812,14.423
	c1.321,1.095,0.495,4.274-1.846,7.097c-2.333,2.816-5.3,4.222-6.621,3.128l-17.812-14.425L189.783,52.844z"/>
<ellipse transform="matrix(0.6379 -0.7701 0.7701 0.6379 22.5518 163.8803)" fill="#EEB8CC" stroke="#070707" stroke-width="1.783" stroke-miterlimit="10" cx="185.549" cy="57.958" rx="6.635" ry="2.824"/>
<path fill="#EEB8CC" stroke="#070707" stroke-width="1.783" stroke-miterlimit="10" d="M166.634,31.157l24.626,19.94
	c1.827,1.514,0.683,5.909-2.552,9.812c-3.225,3.894-7.329,5.837-9.154,4.323l-24.626-19.941L166.634,31.157z"/>
<path fill="#EEB8CC" stroke="#070707" stroke-width="1.783" stroke-miterlimit="10" d="M166.632,31.163
	c1.662,1.375,0.385,5.654-2.845,9.555c-3.231,3.9-7.194,5.95-8.859,4.573c-1.66-1.375-0.386-5.655,2.842-9.557
	C161.004,31.835,164.967,29.787,166.632,31.163z"/>
<path fill="#EEB8CC" stroke="#070707" stroke-width="1.783" stroke-miterlimit="10" d="M135.133,1.471l33.721,27.303
	c2.503,2.072,0.936,8.09-3.492,13.436c-4.418,5.332-10.036,7.991-12.537,5.919l-33.72-27.305L135.133,1.471z"/>
<path fill="#BC92A4" stroke="#070707" stroke-width="1.783" stroke-miterlimit="10" d="M135.131,1.478
	c2.275,1.884,0.527,7.743-3.894,13.084c-4.425,5.341-9.854,8.148-12.131,6.262c-2.275-1.883-0.529-7.743,3.892-13.085
	C127.425,2.399,132.854-0.406,135.131,1.478z"/>
<path fill="#F9F9F9" stroke="#070707" stroke-width="2.3774" stroke-miterlimit="10" d="M277.764,186.889l-75.975,0.488
	c0,0-10.265-36.92-0.288-44.925c13.363-10.722,63.962-12.108,75.975-0.487C286.446,150.644,277.764,186.889,277.764,186.889z"/>
<path fill="#070707" d="M223.197,233.732c0,0-17.262-11.098-17.329,5.544h28.338v-5.219"/>
<path fill="#070707" d="M240.089,235.146c0,0-17.261-11.096-17.328,5.546h28.338v-5.219"/>
<polygon fill="#F9F9F9" stroke="#070707" stroke-width="1.72" stroke-miterlimit="10" points="239.307,143.191 254.272,143.191 
	268.114,176.475 245.429,199.06 241.717,190.145 254.272,171.125 "/>
<line fill="#F9F9F9" stroke="#070707" stroke-width="1.783" stroke-miterlimit="10" x1="245.29" y1="199.116" x2="247.166" y2="203.288"/>
<path fill="#070707" d="M444.095,347.053c-5.305-59.979-102.683-107.777-222.047-107.777S5.305,287.075,0,347.053H444.095z"/>
<path fill="#FAF0C7" stroke="#0C0C0C" stroke-width="0.8393" d="M190.52,48.363c0.766,0.96,0.59,2.381-0.406,3.171
	c-0.987,0.792-2.413,0.655-3.181-0.304c-0.769-0.963-0.588-2.382,0.401-3.175C188.325,47.264,189.751,47.401,190.52,48.363z"/>
<path fill="#FAF0C7" stroke="#0C0C0C" stroke-width="0.8393" d="M194.387,50.988c0.866,1.085,0.667,2.691-0.452,3.587
	c-1.121,0.892-2.73,0.738-3.599-0.346c-0.866-1.089-0.666-2.693,0.452-3.588C191.907,49.748,193.521,49.902,194.387,50.988z"/>
<path fill="#FAF0C7" stroke="#0C0C0C" stroke-width="0.8393" d="M198.053,54.357c0.827,1.033,0.632,2.564-0.434,3.418
	c-1.068,0.852-2.599,0.707-3.43-0.33s-0.636-2.569,0.43-3.42C195.688,53.17,197.225,53.32,198.053,54.357z"/>
<path fill="#FAF0C7" stroke="#0C0C0C" stroke-width="0.8393" d="M200.723,57.692c0.689,0.865,0.532,2.146-0.362,2.861
	c-0.894,0.711-2.178,0.591-2.869-0.277c-0.694-0.866-0.529-2.146,0.362-2.858C198.745,56.704,200.033,56.827,200.723,57.692z"/>
</svg>
