<?xml version="1.0" encoding="utf-8"?>
<!-- Generator: Adobe Illustrator 15.0.0, SVG Export Plug-In  -->
<!DOCTYPE svg PUBLIC "-//W3C//DTD SVG 1.1//EN" "http://www.w3.org/Graphics/SVG/1.1/DTD/svg11.dtd" [
	<!ENTITY ns_flows "http://ns.adobe.com/Flows/1.0/">
]>
<svg version="1.1"
	 xmlns="http://www.w3.org/2000/svg" xmlns:xlink="http://www.w3.org/1999/xlink" xmlns:a="http://ns.adobe.com/AdobeSVGViewerExtensions/3.0/"
	 x="0px" y="0px" width="1042px" height="439px" viewBox="0 -6.56 1042 439"
	 overflow="visible" enable-background="new 0 -6.56 1042 439" xml:space="preserve">
<defs>
</defs>
<polygon points="558.25,156.606 577.301,156.606 555.651,78.38 534,0 512.349,78.303 490.699,156.606 509.75,156.606 
	490.699,226.606 508.018,226.606 490.699,288.606 534,288.606 577.301,288.606 559.982,226.606 577.301,226.606 "/>
<rect x="525.278" y="286.606" width="18" height="72"/>
<rect x="673.278" y="305.606" width="18" height="53"/>
<polygon fill="#0C0B0A" points="461.25,210.606 480.301,210.606 458.651,152.854 437,95.112 415.349,152.859 393.699,210.606 
	412.75,210.606 393.699,261.606 411.018,261.606 393.699,307.606 437,307.606 480.301,307.606 462.982,261.606 480.301,261.606 "/>
<rect x="428.278" y="305.606" fill="#0C0B0A" width="18" height="54"/>
<polygon points="706.25,210.606 725.301,210.606 703.651,152.854 682,95.112 660.349,152.859 638.699,210.606 657.75,210.606 
	638.699,261.606 656.018,261.606 638.699,307.606 682,307.606 725.301,307.606 707.982,261.606 725.301,261.606 "/>
<path d="M209.278,432.606h832.389c-161.111-61-345.389-74-345.389-74H563.889c0,0-63.89-5.375-117.611,0.069
	c-53.723,5.444-236.556,29.347-236.556,29.347L0,432.329L209.278,432.606z"/>
<g>
	<line x1="543.278" y1="315.662" x2="673.278" y2="332.106"/>
	<g>
		<path d="M543.278,317.162c43.333,5.481,86.667,10.963,130,16.444c1.916,0.242,1.893-2.761,0-3
			c-43.333-5.481-86.667-10.963-130-16.444C541.362,313.92,541.385,316.923,543.278,317.162L543.278,317.162z"/>
	</g>
</g>
<path d="M565.104,318.423c0,0,31.547,52.222,93.229,13.684"/>
</svg>
