<?xml version="1.0" encoding="utf-8"?>
<!-- Generator: Adobe Illustrator 15.0.0, SVG Export Plug-In  -->
<!DOCTYPE svg PUBLIC "-//W3C//DTD SVG 1.1//EN" "http://www.w3.org/Graphics/SVG/1.1/DTD/svg11.dtd" [
	<!ENTITY ns_flows "http://ns.adobe.com/Flows/1.0/">
]>
<svg version="1.1"
	 xmlns="http://www.w3.org/2000/svg" xmlns:xlink="http://www.w3.org/1999/xlink" xmlns:a="http://ns.adobe.com/AdobeSVGViewerExtensions/3.0/"
	 x="0px" y="0px" width="571px" height="71px" viewBox="-9.058 -9.953 571 71"
	 overflow="visible" enable-background="new -9.058 -9.953 571 71" xml:space="preserve">
<defs>
</defs>
<g>
	<path fill="#FFFFFF" d="M0,54.71c0,0,107.337-29.205,113.494-54.506c0,0,7.31,45.751,30.358,44.082"/>
	<path fill="#0C0C0C" d="M0,54.71c5.116-1.573,10.219-3.182,15.304-4.843c5.08-1.677,10.151-3.375,15.211-5.102
		c10.113-3.474,20.131-7.212,30.058-11.149c9.906-3.979,19.686-8.306,29.043-13.37c4.672-2.531,9.248-5.263,13.438-8.468
		c2.085-1.607,4.082-3.333,5.804-5.273c1.713-1.929,3.188-4.112,3.796-6.505l1.691,0.068c0.817,4.681,1.91,9.382,3.27,13.97
		c1.372,4.59,3.023,9.106,5.138,13.397c2.137,4.26,4.671,8.398,8.144,11.684c1.732,1.632,3.715,3.018,5.924,3.933
		c2.202,0.92,4.617,1.354,7.03,1.234c-2.399,0.238-4.874-0.046-7.161-0.899c-2.291-0.847-4.382-2.19-6.221-3.793
		c-3.686-3.23-6.465-7.351-8.715-11.649c-2.255-4.315-4.037-8.854-5.537-13.472c-1.484-4.629-2.731-9.31-3.577-14.132l1.691,0.067
		c-0.703,2.829-2.332,5.211-4.131,7.278c-1.816,2.079-3.877,3.882-6.013,5.557c-4.29,3.333-8.915,6.139-13.626,8.74
		c-9.47,5.132-19.364,9.343-29.335,13.281c-9.974,3.945-20.133,7.378-30.337,10.633c-5.101,1.634-10.229,3.18-15.382,4.636
		C10.358,52,5.199,53.431,0,54.71z"/>
</g>
<g>
	<path fill="#A6D4FD" d="M16.016,54.93c0,0,89.89-23.224,95.143-42.987c0,0,5.926,35.663,25.209,34.267"/>
	<path fill="#0C0C0C" d="M16.016,54.93c4.246-1.274,8.484-2.561,12.709-3.892l12.646-4.066c8.412-2.763,16.751-5.727,25.032-8.819
		c8.266-3.127,16.427-6.545,24.292-10.497c3.927-1.977,7.78-4.114,11.346-6.622c1.774-1.259,3.477-2.616,4.971-4.143
		c1.475-1.522,2.782-3.256,3.317-5.168l1.674,0.079c0.676,3.706,1.563,7.448,2.712,11.075c1.149,3.632,2.542,7.194,4.328,10.55
		c1.805,3.328,3.944,6.542,6.839,9.005c2.852,2.477,6.616,3.972,10.484,3.777c-1.911,0.197-3.882,0.04-5.74-0.551
		c-1.86-0.582-3.592-1.549-5.137-2.741c-3.094-2.403-5.494-5.584-7.412-8.956c-1.928-3.382-3.45-6.971-4.726-10.632
		c-1.254-3.677-2.334-7.387-3.04-11.246l1.674,0.08c-0.656,2.391-2.13,4.302-3.694,5.961c-1.591,1.657-3.357,3.087-5.181,4.408
		c-3.662,2.627-7.562,4.835-11.525,6.879c-7.958,4.043-16.238,7.318-24.562,10.407c-8.326,3.098-16.795,5.769-25.296,8.299
		c-4.249,1.272-8.518,2.477-12.808,3.597C24.634,52.846,20.341,53.954,16.016,54.93z"/>
</g>
<g>
	<path fill="#FFFFFF" d="M54.362,60.565c0,0,97.488-25.59,103.153-47.491c0,0,6.491,39.545,27.41,38.03"/>
	<path fill="#0C0C0C" d="M54.362,60.565c4.619-1.391,9.228-2.803,13.821-4.263l13.748-4.47c9.143-3.04,18.206-6.304,27.197-9.726
		c8.976-3.457,17.838-7.229,26.36-11.61c4.255-2.191,8.428-4.561,12.278-7.34c1.916-1.396,3.755-2.896,5.359-4.588
		c1.589-1.684,2.983-3.598,3.558-5.71l1.68,0.076c0.737,4.092,1.711,8.213,2.955,12.218c1.248,4.009,2.756,7.945,4.69,11.663
		c1.954,3.689,4.272,7.257,7.419,10.022c1.569,1.373,3.35,2.521,5.309,3.265c1.954,0.752,4.073,1.098,6.189,1.001
		c-2.104,0.213-4.274,0.014-6.308-0.667c-2.036-0.673-3.92-1.774-5.594-3.115c-3.35-2.709-5.925-6.248-7.992-9.979
		c-2.075-3.744-3.713-7.705-5.088-11.743c-1.354-4.052-2.511-8.145-3.275-12.386l1.68,0.075c-0.687,2.577-2.245,4.678-3.922,6.499
		c-1.701,1.823-3.603,3.398-5.568,4.857c-3.948,2.902-8.168,5.342-12.461,7.602c-8.621,4.466-17.601,8.104-26.636,11.521
		c-9.038,3.427-18.233,6.395-27.466,9.206c-4.615,1.413-9.251,2.75-13.912,4.001C63.725,58.237,59.061,59.472,54.362,60.565z"/>
</g>
<g>
	<path fill="#FDFBF8" d="M448.678,55.013c0,0,79.92-20.648,84.591-38.221c0,0,5.268,31.709,22.413,30.466"/>
	<path fill="#0C0C0C" d="M448.678,55.013c3.771-1.149,7.536-2.303,11.289-3.497l11.229-3.659c7.468-2.487,14.896-5.081,22.238-7.877
		c7.329-2.822,14.609-5.792,21.589-9.321c3.484-1.763,6.902-3.668,10.059-5.897c1.571-1.117,3.088-2.309,4.412-3.655
		c1.31-1.341,2.465-2.865,2.939-4.535l1.689,0.08c0.58,3.29,1.386,6.613,2.402,9.833c1.029,3.221,2.245,6.391,3.816,9.377
		c1.586,2.963,3.479,5.819,6.041,8.013c2.524,2.205,5.859,3.543,9.3,3.385c-1.698,0.182-3.453,0.05-5.109-0.471
		c-1.658-0.514-3.204-1.37-4.583-2.428c-2.764-2.134-4.905-4.963-6.631-7.956c-1.73-3.004-3.106-6.193-4.233-9.456
		c-1.118-3.274-2.062-6.577-2.71-10.014l1.689,0.081c-0.585,2.155-1.901,3.871-3.295,5.359c-1.418,1.484-2.985,2.771-4.613,3.947
		c-3.269,2.336-6.744,4.294-10.275,6.106c-3.532,1.815-7.157,3.418-10.802,4.956c-3.646,1.533-7.331,2.967-11.046,4.31
		c-7.422,2.707-14.938,5.124-22.509,7.343c-3.784,1.112-7.584,2.167-11.402,3.155C456.348,53.187,452.527,54.162,448.678,55.013z"/>
</g>
<g>
	<path fill="#A6D4FD" d="M75.65,60.311c0,0,74.833-19.334,79.205-35.787c0,0,4.934,29.689,20.986,28.526"/>
	<path fill="#0C0C0C" d="M75.65,60.311c3.528-1.086,7.052-2.172,10.564-3.296l10.508-3.442c6.989-2.337,13.941-4.771,20.814-7.393
		c6.859-2.646,13.674-5.426,20.206-8.729c3.261-1.649,6.46-3.432,9.412-5.516c1.47-1.045,2.888-2.157,4.125-3.414
		c1.223-1.25,2.3-2.672,2.741-4.22l1.689,0.08c0.542,3.075,1.292,6.188,2.241,9.201c0.961,3.014,2.094,5.981,3.56,8.777
		c1.48,2.773,3.246,5.448,5.637,7.504c2.357,2.066,5.473,3.325,8.695,3.186c-1.589,0.174-3.235,0.055-4.788-0.431
		c-1.555-0.479-3.005-1.279-4.3-2.269c-2.594-1.995-4.607-4.644-6.227-7.447c-1.625-2.813-2.918-5.8-3.977-8.856
		c-1.051-3.067-1.939-6.16-2.547-9.382l1.689,0.081c-0.551,2.033-1.789,3.646-3.096,5.045c-1.331,1.394-2.801,2.601-4.326,3.705
		c-3.064,2.19-6.32,4.025-9.628,5.724c-6.641,3.353-13.513,6.146-20.465,8.674c-6.952,2.532-13.993,4.79-21.084,6.858
		c-3.545,1.038-7.105,2.021-10.682,2.938C82.836,58.616,79.257,59.523,75.65,60.311z"/>
</g>
<g>
	<path fill="#A6D4FD" d="M465.678,56.084c0,0,60.96-15.75,64.522-29.153c0,0,4.019,24.187,17.096,23.238"/>
	<path fill="#0C0C0C" d="M465.678,56.084l8.588-2.748l8.544-2.851c5.684-1.929,11.339-3.928,16.931-6.071
		c5.579-2.167,11.125-4.43,16.436-7.116c2.652-1.339,5.253-2.786,7.646-4.475c1.192-0.845,2.343-1.742,3.342-2.753
		c0.989-1.005,1.852-2.146,2.2-3.361l1.689,0.08c0.435,2.492,1.033,5.029,1.796,7.479c0.775,2.451,1.683,4.866,2.861,7.143
		c1.195,2.255,2.609,4.438,4.538,6.118c1.902,1.688,4.42,2.724,7.047,2.641c-1.293,0.143-2.639,0.073-3.91-0.321
		c-1.271-0.388-2.467-1.027-3.529-1.833c-2.132-1.62-3.793-3.776-5.128-6.062c-1.339-2.293-2.405-4.729-3.278-7.222
		c-0.864-2.504-1.602-5.021-2.104-7.659l1.689,0.081c-0.459,1.701-1.482,3.033-2.555,4.186c-1.094,1.148-2.296,2.141-3.543,3.046
		c-2.507,1.794-5.165,3.294-7.864,4.682c-5.42,2.736-11.023,5.012-16.695,7.062c-5.67,2.055-11.414,3.877-17.2,5.537
		c-2.892,0.834-5.798,1.619-8.718,2.347C471.544,54.748,468.623,55.471,465.678,56.084z"/>
</g>
</svg>
